<?xml version="1.0" encoding="utf-8"?>
<svg version="1.1" xmlns:xlink="http://www.w3.org/1999/xlink" width="50px" height="50px" xmlns="http://www.w3.org/2000/svg">
  <defs>
    <mask fill="white" id="clip36">
      <path d="M 25 50  C 11.75798593756491 50  1.1999147796664715 40.15887601669874  0.09546456147563731 27.246306085267634  C 0.032244742331670295 26.507177854493875  0 25.757985937564854  0 25  C 0 12.086145738118375  9.359407912593156 1.724857270580742  21.799468945014326 0.1948893901512747  C 22.845765348728776 0.06620835820785942  23.913854261881454 0  25 0  C 36.853135065607916 0  46.555808740141174 7.885025100606981  49.25283829564114 18.799892573862508  C 49.74133000249108 20.776816494172863  50 22.85313506560783  50 25  C 50 27.058113162096102  49.762274858837145 29.05139219478406  49.31224095271864 30.95442072185665  C 46.70098804444115 41.99645268498807  36.94188683790401 50  25 50  Z " fill-rule="evenodd" />
    </mask>
  </defs>
  <g transform="matrix(1 0 0 1 -199 -1638 )">
    <path d="M 25 50  C 11.75798593756491 50  1.1999147796664715 40.15887601669874  0.09546456147563731 27.246306085267634  C 0.032244742331670295 26.507177854493875  0 25.757985937564854  0 25  C 0 12.086145738118375  9.359407912593156 1.724857270580742  21.799468945014326 0.1948893901512747  C 22.845765348728776 0.06620835820785942  23.913854261881454 0  25 0  C 36.853135065607916 0  46.555808740141174 7.885025100606981  49.25283829564114 18.799892573862508  C 49.74133000249108 20.776816494172863  50 22.85313506560783  50 25  C 50 27.058113162096102  49.762274858837145 29.05139219478406  49.31224095271864 30.95442072185665  C 46.70098804444115 41.99645268498807  36.94188683790401 50  25 50  Z " fill-rule="nonzero" fill="#ffffff" stroke="none" transform="matrix(1 0 0 1 199 1638 )" />
    <path d="M 25 50  C 11.75798593756491 50  1.1999147796664715 40.15887601669874  0.09546456147563731 27.246306085267634  C 0.032244742331670295 26.507177854493875  0 25.757985937564854  0 25  C 0 12.086145738118375  9.359407912593156 1.724857270580742  21.799468945014326 0.1948893901512747  C 22.845765348728776 0.06620835820785942  23.913854261881454 0  25 0  C 36.853135065607916 0  46.555808740141174 7.885025100606981  49.25283829564114 18.799892573862508  C 49.74133000249108 20.776816494172863  50 22.85313506560783  50 25  C 50 27.058113162096102  49.762274858837145 29.05139219478406  49.31224095271864 30.95442072185665  C 46.70098804444115 41.99645268498807  36.94188683790401 50  25 50  Z " stroke-width="2" stroke-dasharray="3,1" stroke="#999999" fill="none" transform="matrix(1 0 0 1 199 1638 )" mask="url(#clip36)" />
  </g>
</svg>