<?xml version="1.0" encoding="utf-8"?>
<svg version="1.1" xmlns:xlink="http://www.w3.org/1999/xlink" width="50px" height="47px" xmlns="http://www.w3.org/2000/svg">
  <g transform="matrix(1 0 0 1 -317 -675 )">
    <path d="M 48.81258023106547 21.967391304347824  C 49.604193410355165 22.797554347826086  50.000000000000014 23.76607789855072  50 24.87296195652174  C 50.000000000000014 25.958559782608695  49.604193410355165 26.916440217391305  48.81258023106547 27.746603260869563  L 46.405648267008985 30.141304347826086  C 45.592640136927685 30.950181159420282  44.61916987590929 31.354619565217394  43.48523748395379 31.354619565217394  C 42.329910141206675 31.354619565217394  41.367137355584084 30.950181159420282  40.596919127086004 30.141304347826086  L 31 20.786005434782606  L 31 43.26426630434783  C 31.161745827984593 44.37115036231884  30.76059050064185 45.27049365942029  29.958279845956355 45.96229619565217  C 29.15596919127086 46.65409873188406  28.187847667950365 47  27.053915275994868 47  L 22.946084724005132 47  C 21.81215233204964 47  20.844030808729137 46.65409873188406  20.041720154043645 45.96229619565217  C 19.23940949935815 45.27049365942029  18.838254172015404 44.37115036231884  19 43.26426630434783  L 19 20.786005434782606  L 9.403080872913993 30.141304347826086  C 8.632862644415917 30.950181159420282  7.670089858793324 31.354619565217394  6.514762516046213 31.354619565217394  C 5.359435173299102 31.354619565217394  4.396662387676508 30.950181159420282  3.6264441591784338 30.141304347826086  L 1.2195121951219512 27.746603260869563  C 0.4065040650406505 26.93772644927536  0 25.979846014492754  0 24.87296195652174  C 0 23.744791666666664  0.4065040650406505 22.776268115942027  1.2195121951219512 21.967391304347824  L 22.111681643132222 1.1813858695652182  C 22.860504920838686 0.39379528985507095  23.82327770646128 0  25 0  C 26.15532734274711 0  27.128797603765513 0.39379528985507095  27.9204107830552 1.1813858695652182  L 48.81258023106547 21.967391304347824  Z " fill-rule="nonzero" fill="#009dd9" stroke="none" transform="matrix(1 0 0 1 317 675 )" />
  </g>
</svg>