<?xml version="1.0" encoding="utf-8"?>
<svg version="1.1" xmlns:xlink="http://www.w3.org/1999/xlink" width="377px" height="377px" xmlns="http://www.w3.org/2000/svg">
  <g transform="matrix(1 0 0 1 -154 -291 )">
    <path d="M 342.5 291  C 448.06 291  531 373.94  531 479.5  C 531 585.06  448.06 668  342.5 668  C 236.94 668  154 585.06  154 479.5  C 154 373.94  236.94 291  342.5 291  Z " fill-rule="nonzero" fill="#d7d7d7" stroke="none" />
    <path d="M 342.5 291.5  C 447.78000000000003 291.5  530.5 374.21999999999997  530.5 479.5  C 530.5 584.78  447.78000000000003 667.5  342.5 667.5  C 237.21999999999997 667.5  154.5 584.78  154.5 479.5  C 154.5 374.21999999999997  237.21999999999997 291.5  342.5 291.5  Z " stroke-width="1" stroke="#797979" fill="none" />
  </g>
</svg>