<?xml version="1.0" encoding="utf-8"?>
<svg version="1.1" xmlns:xlink="http://www.w3.org/1999/xlink" width="35px" height="37px" xmlns="http://www.w3.org/2000/svg">
  <g transform="matrix(1 0 0 1 -370 -370 )">
    <path d="M 28.370901639344265 23.10692350642099  C 28.992486338797818 21.640145170295924  29.303278688524593 20.101060859854826  29.303278688524593 18.489670575097712  C 29.303278688524593 16.87828029034059  28.992486338797818 15.339195979899497  28.370901639344265 13.872417643774428  C 27.74931693989071 12.405639307649357  26.909153005464482 11.138563186301875  25.850409836065573 10.071189279731993  C 24.791666666666668 9.003815373162105  23.53483606557377 8.156802531174387  22.079918032786885 7.530150753768846  C 20.625 6.903498976363293  19.098360655737707 6.590173087660526  17.5 6.590173087660526  C 15.901639344262295 6.590173087660526  14.375 6.903498976363293  12.920081967213115 7.530150753768846  C 11.46516393442623 8.156802531174387  10.208333333333334 9.003815373162105  9.149590163934425 10.071189279731993  C 8.09084699453552 11.138563186301875  7.25068306010929 12.405639307649357  6.629098360655737 13.872417643774428  C 6.007513661202187 15.339195979899497  5.696721311475409 16.87828029034059  5.696721311475409 18.489670575097712  C 5.696721311475409 20.101060859854826  6.007513661202187 21.640145170295924  6.629098360655737 23.10692350642099  C 7.25068306010929 24.573701842546065  8.09084699453552 25.84077796389354  9.149590163934425 26.908151870463428  C 10.208333333333334 27.975525777033315  11.46516393442623 28.822538619021035  12.920081967213115 29.44919039642658  C 14.375 30.07584217383212  15.901639344262295 30.389168062534896  17.5 30.389168062534896  C 19.098360655737707 30.389168062534896  20.625 30.07584217383212  22.079918032786885 29.44919039642658  C 23.53483606557377 28.822538619021035  24.791666666666668 27.975525777033315  25.850409836065573 26.908151870463428  C 26.909153005464482 25.84077796389354  27.74931693989071 24.573701842546065  28.370901639344265 23.10692350642099  Z M 34.877049180327866 23.613065326633166  C 35 23.778336125069792  35.02732240437158 23.978038339847384  34.959016393442624 24.21217197096594  C 34.904371584699454 24.418760469011726  34.76775956284153 24.55648613437558  34.549180327868854 24.625348967057512  L 28.565573770491802 26.608598548297042  L 28.565573770491802 32.930206588498045  C 28.565573770491802 33.150567653080216  28.476775956284154 33.32961101805323  28.29918032786885 33.46733668341709  C 28.094262295081965 33.60506234878094  27.896174863387984 33.63260748185371  27.704918032786885 33.5499720826354  L 21.721311475409838 31.608040201005025  L 18.0327868852459 36.73143495254048  C 17.896174863387984 36.910478317513494  17.71857923497268 37  17.5 37  C 17.281420765027324 37  17.103825136612024 36.910478317513494  16.9672131147541 36.73143495254048  L 13.278688524590162 31.608040201005025  L 7.295081967213115 33.5499720826354  C 7.103825136612021 33.63260748185371  6.905737704918033 33.60506234878094  6.700819672131147 33.46733668341709  C 6.523224043715848 33.32961101805323  6.434426229508197 33.150567653080216  6.434426229508197 32.930206588498045  L 6.434426229508197 26.608598548297042  L 0.45081967213114754 24.625348967057512  C 0.23224043715846984 24.55648613437558  0.0956284153005464 24.418760469011726  0.040983606557377046 24.21217197096594  C -0.0273224043715846 23.978038339847384  0 23.778336125069792  0.12295081967213115 23.613065326633166  L 3.8114754098360653 18.489670575097712  L 0.12295081967213115 13.366275823562255  C 0 13.187232458589241  -0.0273224043715846 12.987530243811646  0.040983606557377046 12.767169179229482  C 0.0956284153005464 12.560580681183696  0.23224043715846984 12.422855015819838  0.45081967213114754 12.353992183137914  L 6.434426229508197 10.37074260189838  L 6.434426229508197 4.049134561697376  C 6.434426229508197 3.8287734971152028  6.523224043715848 3.6497301321421878  6.700819672131147 3.5120044667783343  C 6.905737704918033 3.3742788014144773  7.103825136612021 3.346733668341707  7.295081967213115 3.429369067560023  L 13.278688524590162 5.3713009491903945  L 16.9672131147541 0.2479061976549397  C 17.09016393442623 0.08263539921831187  17.267759562841533 0  17.5 0  C 17.73224043715847 0  17.90983606557377 0.08263539921831187  18.0327868852459 0.2479061976549397  L 21.721311475409838 5.3713009491903945  L 27.704918032786885 3.429369067560023  C 27.896174863387984 3.346733668341707  28.094262295081965 3.3742788014144773  28.29918032786885 3.5120044667783343  C 28.476775956284154 3.6497301321421878  28.565573770491802 3.8287734971152028  28.565573770491802 4.049134561697376  L 28.565573770491802 10.37074260189838  L 34.549180327868854 12.353992183137914  C 34.76775956284153 12.422855015819838  34.904371584699454 12.560580681183696  34.959016393442624 12.767169179229482  C 35.02732240437158 12.987530243811646  35 13.187232458589241  34.877049180327866 13.366275823562255  L 31.188524590163933 18.489670575097712  L 34.877049180327866 23.613065326633166  Z " fill-rule="nonzero" fill="#000000" stroke="none" transform="matrix(1 0 0 1 370 370 )" />
  </g>
</svg>