<?xml version="1.0" encoding="utf-8"?>
<svg version="1.1" xmlns:xlink="http://www.w3.org/1999/xlink" width="13px" height="22px" xmlns="http://www.w3.org/2000/svg">
  <g transform="matrix(1 0 0 1 -1300 -251 )">
    <path d="M 12.776632302405497 1.3226452905811612  C 12.925544100801835 1.469605878423511  13 1.638610554442215  13 1.8296593186372752  C 13 2.0207080828323303  12.925544100801835 2.1897127588510346  12.776632302405497 2.3366733466933867  L 3.9982817869415808 11  L 12.776632302405497 19.663326653306612  C 12.925544100801835 19.810287241148966  13 19.979291917167668  13 20.170340681362724  C 13 20.361389445557784  12.925544100801835 20.530394121576485  12.776632302405497 20.67735470941884  L 11.659793814432991 21.779559118236474  C 11.510882016036657 21.926519706078825  11.339633447880873 22  11.146048109965635 22  C 10.952462772050403 22  10.781214203894619 21.926519706078825  10.632302405498281 21.779559118236474  L 0.22336769759450173 11.507014028056112  C 0.0744558991981673 11.36005344021376  0 11.191048764195056  0 11  C 0 10.808951235804942  0.0744558991981673 10.639946559786239  0.22336769759450173 10.492985971943888  L 10.632302405498281 0.22044088176352727  C 10.781214203894619 0.07348029392117494  10.952462772050403 0  11.146048109965635 0  C 11.339633447880873 0  11.510882016036657 0.07348029392117494  11.659793814432991 0.22044088176352727  L 12.776632302405497 1.3226452905811612  Z " fill-rule="nonzero" fill="#000000" stroke="none" transform="matrix(1 0 0 1 1300 251 )" />
  </g>
</svg>