<?xml version="1.0" encoding="utf-8"?>
<svg version="1.1" xmlns:xlink="http://www.w3.org/1999/xlink" width="106px" height="19px" xmlns="http://www.w3.org/2000/svg">
  <defs>
    <mask fill="white" id="clip33">
      <path d="M 0 19  L 0 0  L 39 0  L 51 0  L 61.83333333333213 0  L 72.33333333333212 0  L 106 0  L 106 19  L 72.33333333333212 19  L 0 19  Z " fill-rule="evenodd" />
    </mask>
  </defs>
  <g transform="matrix(1 0 0 1 -1959 -712 )">
    <path d="M 0 19  L 0 0  L 39 0  L 51 0  L 61.83333333333213 0  L 72.33333333333212 0  L 106 0  L 106 19  L 72.33333333333212 19  L 0 19  Z " fill-rule="nonzero" fill="#ffffff" stroke="none" transform="matrix(1 0 0 1 1959 712 )" />
    <path d="M 0 19  L 0 0  L 39 0  L 51 0  L 61.83333333333213 0  L 72.33333333333212 0  L 106 0  L 106 19  L 72.33333333333212 19  L 0 19  Z " stroke-width="2" stroke="#797979" fill="none" transform="matrix(1 0 0 1 1959 712 )" mask="url(#clip33)" />
  </g>
</svg>