<?xml version="1.0" encoding="utf-8"?>
<svg version="1.1" xmlns:xlink="http://www.w3.org/1999/xlink" width="33px" height="33px" xmlns="http://www.w3.org/2000/svg">
  <g transform="matrix(1 0 0 1 -280 -2298 )">
    <path d="M 21.8388671875 3.8457031250000013  C 20.1416015625 3.1152343749999987  18.361979166666668 2.7500000000000013  16.5 2.7500000000000013  C 14.638020833333334 2.7500000000000013  12.8583984375 3.1152343749999987  11.1611328125 3.8457031250000013  C 9.4638671875 4.576171875  8.0029296875 5.553710937500001  6.7783203125 6.778320312500001  C 5.5537109375 8.002929687500002  4.576171875 9.463867187499998  3.845703125 11.161132812500002  C 3.115234375 12.8583984375  2.75 14.638020833333332  2.75 16.5  C 2.75 18.361979166666668  3.115234375 20.1416015625  3.845703125 21.838867187500004  C 4.576171875 23.536132812499996  5.5537109375 24.9970703125  6.7783203125 26.2216796875  C 8.0029296875 27.4462890625  9.4638671875 28.423828125  11.1611328125 29.154296875  C 12.8583984375 29.884765625  14.638020833333334 30.25  16.5 30.25  C 18.361979166666668 30.25  20.1416015625 29.884765625  21.8388671875 29.154296875  C 23.5361328125 28.423828125  24.9970703125 27.4462890625  26.2216796875 26.2216796875  C 27.4462890625 24.9970703125  28.423828125 23.536132812499996  29.154296875 21.838867187500004  C 29.884765625 20.1416015625  30.25 18.361979166666668  30.25 16.5  C 30.25 14.638020833333332  29.884765625 12.8583984375  29.154296875 11.161132812500002  C 28.423828125 9.463867187499998  27.4462890625 8.002929687500002  26.2216796875 6.778320312500001  C 24.9970703125 5.553710937500001  23.5361328125 4.576171875  21.8388671875 3.8457031250000013  Z M 30.787109375 8.2177734375  C 32.262369791666664 10.745768229166664  33 13.506510416666663  33 16.5  C 33 19.493489583333336  32.262369791666664 22.25423177083333  30.787109375 24.7822265625  C 29.311848958333336 27.310221354166668  27.310221354166668 29.311848958333332  24.7822265625 30.787109375  C 22.254231770833336 32.26236979166667  19.493489583333336 33  16.5 33  C 13.506510416666668 33  10.745768229166668 32.26236979166667  8.2177734375 30.787109375  C 5.689778645833334 29.311848958333332  3.688151041666667 27.310221354166668  2.212890625 24.7822265625  C 0.7376302083333333 22.25423177083333  0 19.493489583333336  0 16.5  C 0 13.506510416666663  0.7376302083333333 10.745768229166664  2.212890625 8.2177734375  C 3.688151041666667 5.689778645833333  5.689778645833334 3.6881510416666634  8.2177734375 2.2128906249999987  C 10.745768229166668 0.7376302083333305  13.506510416666668 0  16.5 0  C 19.493489583333336 0  22.254231770833336 0.7376302083333305  24.7822265625 2.2128906249999987  C 27.310221354166668 3.6881510416666634  29.311848958333336 5.689778645833333  30.787109375 8.2177734375  Z " fill-rule="nonzero" fill="#aaaaaa" stroke="none" transform="matrix(1 0 0 1 280 2298 )" />
  </g>
</svg>