<?xml version="1.0" encoding="utf-8"?>
<svg version="1.1" xmlns:xlink="http://www.w3.org/1999/xlink" width="23px" height="23px" xmlns="http://www.w3.org/2000/svg">
  <g transform="matrix(1 0 0 1 -1081 -242 )">
    <path d="M 22.58451612903226 3.175084175084176  C 22.86150537634409 3.5364758698092023  23.000000000000004 3.9753086419753085  23 4.491582491582491  C 23.000000000000004 5.007856341189672  22.86150537634409 5.446689113355778  22.58451612903226 5.808080808080807  L 11.841290322580646 19.824915824915823  L 9.823225806451614 22.457912457912457  C 9.546236559139786 22.819304152637486  9.20989247311828 23  8.814193548387097 23  C 8.418494623655914 23  8.08215053763441 22.819304152637486  7.80516129032258 22.457912457912457  L 5.7870967741935475 19.824915824915823  L 0.415483870967742 12.816498316498318  C 0.1384946236559141 12.455106621773286  0 12.016273849607181  0 11.5  C 0 10.983726150392817  0.1384946236559141 10.54489337822671  0.415483870967742 10.183501683501685  L 2.4335483870967742 7.55050505050505  C 2.7105376344086025 7.189113355780021  3.0468817204301084 7.008417508417506  3.4425806451612906 7.008417508417509  C 3.838279569892474 7.008417508417506  4.174623655913979 7.189113355780021  4.451612903225806 7.55050505050505  L 8.814193548387097 13.26178451178451  L 18.548387096774192 0.5420875420875422  C 18.825376344086024 0.1806958473625132  19.16172043010753 0  19.55741935483871 0  C 19.953118279569892 0  20.289462365591397 0.1806958473625132  20.566451612903226 0.5420875420875422  L 22.58451612903226 3.175084175084176  Z " fill-rule="nonzero" fill="#009dd9" stroke="none" fill-opacity="0.7764705882352941" transform="matrix(1 0 0 1 1081 242 )" />
  </g>
</svg>