<?xml version="1.0" encoding="utf-8"?>
<svg version="1.1" xmlns:xlink="http://www.w3.org/1999/xlink" width="34px" height="98px" xmlns="http://www.w3.org/2000/svg">
  <g transform="matrix(1 0 0 1 -1021 -362 )">
    <path d="M 32.990625 15.039062499999996  C 33.663541666666674 15.731770833333325  34 16.552083333333325  34 17.500000000000004  C 34 18.44791666666666  33.663541666666674 19.26822916666666  32.990625 19.9609375  C 32.317708333333336 20.653645833333325  31.520833333333336 21  30.6 21  L 23.799999999999997 21  L 23.799999999999997 77  L 30.6 77  C 31.520833333333336 77  32.317708333333336 77.34635416666666  32.990625 78.0390625  C 33.663541666666674 78.73177083333334  34 79.55208333333334  34 80.5  C 34 81.44791666666667  33.663541666666674 82.26822916666666  32.990625 82.9609375  L 19.390625 96.9609375  C 18.717708333333334 97.65364583333334  17.920833333333334 98  17 98  C 16.07916666666667 98  15.282291666666667 97.65364583333334  14.609375 96.9609375  L 1.009375 82.9609375  C 0.33645833333333386 82.26822916666666  0 81.44791666666667  0 80.5  C 0 79.55208333333334  0.33645833333333386 78.73177083333334  1.009375 78.0390625  C 1.6822916666666679 77.34635416666666  2.479166666666668 77  3.4000000000000004 77  L 10.2 77  L 10.2 21  L 3.4000000000000004 21  C 2.479166666666668 21  1.6822916666666679 20.653645833333325  1.009375 19.9609375  C 0.33645833333333386 19.26822916666666  0 18.44791666666666  0 17.500000000000004  C 0 16.552083333333325  0.33645833333333386 15.731770833333325  1.009375 15.039062499999996  L 14.609375 1.039062500000003  C 15.282291666666667 0.34635416666667496  16.07916666666667 0  17 0  C 17.920833333333334 0  18.717708333333334 0.34635416666667496  19.390625 1.039062500000003  L 32.990625 15.039062499999996  Z " fill-rule="nonzero" fill="#000000" stroke="none" transform="matrix(1 0 0 1 1021 362 )" />
  </g>
</svg>