<?xml version="1.0" encoding="utf-8"?>
<svg version="1.1" xmlns:xlink="http://www.w3.org/1999/xlink" width="94px" height="35px" xmlns="http://www.w3.org/2000/svg">
  <defs>
    <mask fill="white" id="clip35">
      <path d="M 0 30.625  L 0 4.375  C 0 1.9250000000000398  1.4771428571428875 0  3.3571428571428568 0  L 56.84761904761986 0  L 90.64285714285714 0  C 92.52285714285712 0  94 1.9250000000000398  94 4.375  L 94 30.625  C 94 33.07499999999996  92.52285714285712 35  90.64285714285714 35  L 3.3571428571428568 35  C 1.4771428571428875 35  0 33.07499999999996  0 30.625  Z " fill-rule="evenodd" />
    </mask>
  </defs>
  <g transform="matrix(1 0 0 1 -887 -563 )">
    <path d="M 0 30.625  L 0 4.375  C 0 1.9250000000000398  1.4771428571428875 0  3.3571428571428568 0  L 56.84761904761986 0  L 90.64285714285714 0  C 92.52285714285712 0  94 1.9250000000000398  94 4.375  L 94 30.625  C 94 33.07499999999996  92.52285714285712 35  90.64285714285714 35  L 3.3571428571428568 35  C 1.4771428571428875 35  0 33.07499999999996  0 30.625  Z " fill-rule="nonzero" fill="#ffffff" stroke="none" transform="matrix(1 0 0 1 887 563 )" />
    <path d="M 0 30.625  L 0 4.375  C 0 1.9250000000000398  1.4771428571428875 0  3.3571428571428568 0  L 56.84761904761986 0  L 90.64285714285714 0  C 92.52285714285712 0  94 1.9250000000000398  94 4.375  L 94 30.625  C 94 33.07499999999996  92.52285714285712 35  90.64285714285714 35  L 3.3571428571428568 35  C 1.4771428571428875 35  0 33.07499999999996  0 30.625  Z " stroke-width="2" stroke="#797979" fill="none" transform="matrix(1 0 0 1 887 563 )" mask="url(#clip35)" />
  </g>
</svg>