<?xml version="1.0" encoding="utf-8"?>
<svg version="1.1" xmlns:xlink="http://www.w3.org/1999/xlink" width="17px" height="29px" xmlns="http://www.w3.org/2000/svg">
  <g transform="matrix(1 0 0 1 -1077 -623 )">
    <path d="M 16.707903780068726 13.831663326653308  C 16.902634593356247 14.025384101536405  17 14.24816299265197  17 14.5  C 17 14.751837007348028  16.902634593356247 14.974615898463592  16.707903780068726 15.168336673346692  L 3.0962199312714773 28.70941883767535  C 2.9014891179839633 28.90313961255845  2.6775486827033217 29  2.424398625429553 29  C 2.171248568155785 29  1.9473081328751434 28.90313961255845  1.7525773195876289 28.70941883767535  L 0.2920962199312715 27.256513026052104  C 0.09736540664375723 27.062792251169  0 26.84001336005344  0 26.58817635270541  C 0 26.33633934535738  0.09736540664375723 26.113560454241817  0.2920962199312715 25.919839679358716  L 11.77147766323024 14.5  L 0.2920962199312715 3.0801603206412826  C 0.09736540664375723 2.8864395457581815  0 2.6636606546426176  0 2.41182364729459  C 0 2.159986639946556  0.09736540664375723 1.9372077488309918  0.2920962199312715 1.7434869739478942  L 1.7525773195876289 0.2905811623246496  C 1.9473081328751434 0.09686038744154879  2.171248568155785 0  2.424398625429553 0  C 2.6775486827033217 0  2.9014891179839633 0.09686038744154879  3.0962199312714773 0.2905811623246496  L 16.707903780068726 13.831663326653308  Z " fill-rule="nonzero" fill="#aaaaaa" stroke="none" transform="matrix(1 0 0 1 1077 623 )" />
  </g>
</svg>