<?xml version="1.0" encoding="utf-8"?>
<svg version="1.1" xmlns:xlink="http://www.w3.org/1999/xlink" width="308px" height="308px" xmlns="http://www.w3.org/2000/svg">
  <g transform="matrix(1 0 0 1 -191 -361 )">
    <path d="M 345 361.5  C 430.96000000000004 361.5  498.5 429.03999999999996  498.5 515  C 498.5 600.96  430.96000000000004 668.5  345 668.5  C 259.03999999999996 668.5  191.5 600.96  191.5 515  C 191.5 429.03999999999996  259.03999999999996 361.5  345 361.5  Z " fill-rule="nonzero" fill="#000000" stroke="none" fill-opacity="0" />
    <path d="M 345 361.5  C 430.96000000000004 361.5  498.5 429.03999999999996  498.5 515  C 498.5 600.96  430.96000000000004 668.5  345 668.5  C 259.03999999999996 668.5  191.5 600.96  191.5 515  C 191.5 429.03999999999996  259.03999999999996 361.5  345 361.5  Z " stroke-width="1" stroke-dasharray="17,8" stroke="#797979" fill="none" stroke-dashoffset="0.5" />
  </g>
</svg>