<?xml version="1.0" encoding="utf-8"?>
<svg version="1.1" xmlns:xlink="http://www.w3.org/1999/xlink" width="277px" height="277px" xmlns="http://www.w3.org/2000/svg">
  <g transform="matrix(1 0 0 1 -207 -376 )">
    <path d="M 345.5 376.5  C 422.78 376.5  483.5 437.21999999999997  483.5 514.5  C 483.5 591.78  422.78 652.5  345.5 652.5  C 268.21999999999997 652.5  207.5 591.78  207.5 514.5  C 207.5 437.21999999999997  268.21999999999997 376.5  345.5 376.5  Z " fill-rule="nonzero" fill="#d7d7d7" stroke="none" fill-opacity="0" />
    <path d="M 345.5 376.5  C 422.78 376.5  483.5 437.21999999999997  483.5 514.5  C 483.5 591.78  422.78 652.5  345.5 652.5  C 268.21999999999997 652.5  207.5 591.78  207.5 514.5  C 207.5 437.21999999999997  268.21999999999997 376.5  345.5 376.5  Z " stroke-width="1" stroke-dasharray="9,4" stroke="#797979" fill="none" stroke-dashoffset="0.5" />
  </g>
</svg>