<?xml version="1.0" encoding="utf-8"?>
<svg version="1.1" xmlns:xlink="http://www.w3.org/1999/xlink" width="70px" height="70px" xmlns="http://www.w3.org/2000/svg">
  <g transform="matrix(1 0 0 1 -310 -431 )">
    <path d="M 40.423177083333336 17.91015625  C 40.696614583333336 18.18359375  40.833333333333336 18.5329861111111  40 18.958333333333336  L 40 39.375  C 40.833333333333336 39.80034722222222  40.696614583333336 40.14973958333333  40.423177083333336 40.42317708333333  C 40.149739583333336 40.69661458333333  39.80034722222223 40.83333333333333  39.375 40  L 24.791666666666668 40  C 24.36631944444445 40.83333333333333  24.016927083333332 40.69661458333333  23.743489583333332 40.42317708333333  C 23.470052083333332 40.14973958333333  23.333333333333332 39.80034722222222  23.333333333333332 39.375  L 23.333333333333332 36.45833333333333  C 23.333333333333332 36.03298611111111  23.470052083333332 35.68359375  23.743489583333332 35.41015625  C 24.016927083333332 35.13671875  24.36631944444445 35  24.791666666666668 35  L 35 35  L 35 18.958333333333336  C 35 18.5329861111111  35.13671875 18.18359375  35.41015625 17.91015625  C 35.68359375000001 17.63671875  36.032986111111114 17.5  36.458333333333336 17.5  L 39.375 17.5  C 39.80034722222223 17.5  40.149739583333336 17.63671875  40.423177083333336 17.91015625  Z M 56.46484375 47.44140625  C 58.68272569444444 43.643663194444436  59.791666666666664 39.49652777777778  59.791666666666664 35  C 59.791666666666664 30.503472222222218  58.68272569444444 26.356336805555554  56.46484375 22.55859375  C 54.246961805555564 18.760850694444436  51.239149305555564 15.753038194444438  47.44140625 13.53515625  C 43.64366319444444 11.317274305555555  39.49652777777778 10.208333333333336  35 10.208333333333336  C 30.50347222222222 10.208333333333336  26.356336805555557 11.317274305555555  22.55859375 13.53515625  C 18.760850694444446 15.753038194444438  15.753038194444445 18.760850694444436  13.53515625 22.55859375  C 11.317274305555557 26.356336805555554  10.208333333333334 30.503472222222218  10.208333333333334 35  C 10.208333333333334 39.49652777777778  11.317274305555557 43.643663194444436  13.53515625 47.44140625  C 15.753038194444445 51.23914930555555  18.760850694444446 54.24696180555556  22.55859375 56.46484375  C 26.356336805555557 58.68272569444444  30.50347222222222 59.791666666666664  35 59.791666666666664  C 39.49652777777778 59.791666666666664  43.64366319444444 58.68272569444444  47.44140625 56.46484375  C 51.239149305555564 54.24696180555556  54.246961805555564 51.23914930555555  56.46484375 47.44140625  Z M 65.30598958333334 17.431640625  C 68.4353298611111 22.794053819444436  70 28.6501736111111  70 35  C 70 41.34982638888889  68.4353298611111 47.20594618055555  65.30598958333334 52.568359375  C 62.176649305555564 57.93077256944444  57.93077256944444 62.17664930555556  52.568359375 65.30598958333334  C 47.205946180555564 68.43532986111111  41.34982638888889 70  35 70  C 28.650173611111114 70  22.794053819444446 68.43532986111111  17.431640625 65.30598958333334  C 12.069227430555557 62.17664930555556  7.8233506944444455 57.93077256944444  4.694010416666667 52.568359375  C 1.5646701388888886 47.20594618055555  0 41.34982638888889  0 35  C 0 28.6501736111111  1.5646701388888886 22.794053819444436  4.694010416666667 17.431640625  C 7.8233506944444455 12.069227430555555  12.069227430555557 7.8233506944444375  17.431640625 4.694010416666664  C 22.794053819444446 1.5646701388888828  28.650173611111114 0  35 0  C 41.34982638888889 0  47.205946180555564 1.5646701388888828  52.568359375 4.694010416666664  C 57.93077256944444 7.8233506944444375  62.176649305555564 12.069227430555555  65.30598958333334 17.431640625  Z " fill-rule="nonzero" fill="#ffffff" stroke="none" transform="matrix(1 0 0 1 310 431 )" />
  </g>
</svg>