<?xml version="1.0" encoding="utf-8"?>
<svg version="1.1" xmlns:xlink="http://www.w3.org/1999/xlink" width="30px" height="32px" xmlns="http://www.w3.org/2000/svg">
  <g transform="matrix(1 0 0 1 -1371 -248 )">
    <path d="M 19.505208333333336 0.5  C 19.835069444444443 0.8333333333333286  20 1.2280701754385923  20 1.6842105263157912  L 20 30.315789473684212  C 20 30.7719298245614  19.835069444444443 31.166666666666664  19.505208333333336 31.5  C 19.175347222222225 31.833333333333336  18.78472222222222 32  18.333333333333336 32  C 17.881944444444446 32  17.491319444444446 31.833333333333336  17.161458333333336 31.5  L 8.489583333333334 22.736842105263158  L 1.6666666666666665 22.736842105263158  C 1.215277777777778 22.736842105263158  0.8246527777777778 22.570175438596493  0.4947916666666667 22.236842105263158  C 0.16493055555555555 21.903508771929822  0 21.50877192982456  0 21.05263157894737  L 0 10.94736842105263  C 0 10.491228070175435  0.16493055555555555 10.096491228070171  0.4947916666666667 9.763157894736842  C 0.8246527777777778 9.429824561403507  1.215277777777778 9.263157894736842  1.6666666666666665 9.263157894736842  L 8.489583333333334 9.263157894736842  L 17.161458333333336 0.5  C 17.491319444444446 0.1666666666666643  17.881944444444446 0  18.333333333333336 0  C 18.78472222222222 0  19.175347222222225 0.1666666666666643  19.505208333333336 0.5  Z M 28.893229166666664 12.263157894736842  C 29.631076388888893 13.421052631578949  30 14.666666666666664  30 16  C 30 17.333333333333332  29.631076388888893 18.57456140350877  28.893229166666664 19.723684210526315  C 28.155381944444446 20.872807017543856  27.178819444444446 21.69298245614035  25.963541666666664 22.184210526315788  C 25.78993055555556 22.271929824561404  25.57291666666667 22.315789473684212  25.3125 22.315789473684212  C 24.86111111111111 22.315789473684212  24.470486111111114 22.153508771929822  24.140625 21.828947368421055  C 23.81076388888889 21.504385964912277  23.645833333333332 21.105263157894736  23.645833333333332 20.63157894736842  C 23.645833333333332 20.263157894736842  23.75 19.95175438596491  23.958333333333336 19.69736842105263  C 24.166666666666668 19.44298245614035  24.41840277777778 19.223684210526315  24.713541666666668 19.039473684210527  C 25.00868055555556 18.855263157894736  25.303819444444446 18.653508771929822  25.598958333333336 18.434210526315788  C 25.89409722222222 18.214912280701753  26.145833333333332 17.89912280701754  26.354166666666668 17.486842105263158  C 26.5625 17.07456140350877  26.666666666666664 16.578947368421055  26.666666666666664 16  C 26.666666666666664 15.421052631578949  26.5625 14.925438596491226  26.354166666666668 14.513157894736842  C 26.145833333333332 14.100877192982455  25.89409722222222 13.785087719298243  25.598958333333336 13.565789473684209  C 25.303819444444446 13.346491228070175  25.00868055555556 13.144736842105264  24.713541666666668 12.960526315789473  C 24.41840277777778 12.776315789473685  24.166666666666668 12.557017543859647  23.958333333333336 12.30263157894737  C 23.75 12.048245614035086  23.645833333333332 11.736842105263154  23.645833333333332 11.368421052631579  C 23.645833333333332 10.89473684210526  23.81076388888889 10.495614035087716  24.140625 10.171052631578949  C 24.470486111111114 9.846491228070175  24.86111111111111 9.684210526315791  25.3125 9.684210526315791  C 25.57291666666667 9.684210526315791  25.78993055555556 9.728070175438596  25.963541666666664 9.815789473684209  C 27.178819444444446 10.289473684210527  28.155381944444446 11.105263157894736  28.893229166666664 12.263157894736842  Z " fill-rule="nonzero" fill="#000000" stroke="none" transform="matrix(1 0 0 1 1371 248 )" />
  </g>
</svg>