<?xml version="1.0" encoding="utf-8"?>
<svg version="1.1" xmlns:xlink="http://www.w3.org/1999/xlink" width="34px" height="30px" xmlns="http://www.w3.org/2000/svg">
  <g transform="matrix(1 0 0 1 -1674 -249 )">
    <path d="M 15.304086538461538 2.5738396624472584  C 15.562900641025639 2.8410689170182826  15.692307692307693 3.1575246132208132  16 3.5232067510548513  L 16 26.47679324894515  C 15.692307692307693 26.842475386779185  15.562900641025639 27.158931082981713  15.304086538461538 27.42616033755274  C 15.045272435897436 27.69338959212377  14.738782051282051 27.827004219409282  14.384615384615385 27.827004219409282  C 14.030448717948719 27.827004219409282  13.723958333333334 27.69338959212377  13.465144230769232 27.42616033755274  L 6.6610576923076925 20.400843881856538  L 1.3076923076923077 20.400843881856538  C 0.9535256410256412 20.400843881856538  0.6470352564102565 20.267229254571028  0.3882211538461538 20.000000000000004  C 0.12940705128205127 19.732770745428972  0 19.41631504922644  0 19.050632911392405  L 0 10.949367088607595  C 0 10.583684950773556  0.12940705128205127 10.267229254571022  0.3882211538461538 10.000000000000002  C 0.6470352564102565 9.73277074542897  0.9535256410256412 9.599156118143462  1.3076923076923077 9.599156118143462  L 6.6610576923076925 9.599156118143462  L 13.465144230769232 2.5738396624472584  C 13.723958333333334 2.3066104078762306  14.030448717948719 2.1729957805907185  14.384615384615385 2.1729957805907185  C 14.738782051282051 2.1729957805907185  15.045272435897436 2.3066104078762306  15.304086538461538 2.5738396624472584  Z M 22.670072115384613 12.0042194092827  C 23.2489983974359 12.932489451476792  23.538461538461537 13.931082981715889  23.538461538461537 15  C 23.538461538461537 16.068917018284107  23.2489983974359 17.063994374120956  22.670072115384613 17.985232067510548  C 22.091145833333336 18.906469760900137  21.324919871794872 19.563994374120956  20.37139423076923 19.957805907172997  C 20.235176282051288 20.028129395218  20.064903846153847 20.063291139240505  19.860576923076923 20.063291139240505  C 19.50641025641026 20.063291139240505  19.199919871794872 19.933192686357238  18.94110576923077 19.672995780590718  C 18.682291666666668 19.412798874824187  18.552884615384613 19.09282700421941  18.552884615384613 18.713080168776372  C 18.552884615384613 18.41772151898734  18.634615384615387 18.168073136427566  18.798076923076923 17.964135021097047  C 18.961538461538463 17.760196905766524  19.15905448717949 17.58438818565401  19.390625 17.436708860759495  C 19.622195512820518 17.289029535864977  19.85376602564103 17.127285513361457  20.085336538461537 16.951476793248947  C 20.31690705128205 16.775668073136426  20.514423076923077 16.5225035161744  20.677884615384613 16.191983122362867  C 20.841346153846157 15.861462728551334  20.923076923076923 15.464135021097045  20.923076923076923 15  C 20.923076923076923 14.535864978902955  20.841346153846157 14.138537271448662  20.677884615384613 13.80801687763713  C 20.514423076923077 13.477496483825597  20.31690705128205 13.22433192686357  20.085336538461537 13.048523206751057  C 19.85376602564103 12.872714486638538  19.622195512820518 12.710970464135022  19.390625 12.563291139240508  C 19.15905448717949 12.41561181434599  18.961538461538463 12.239803094233473  18.798076923076923 12.035864978902953  C 18.634615384615387 11.831926863572432  18.552884615384613 11.582278481012656  18.552884615384613 11.286919831223628  C 18.552884615384613 10.907172995780588  18.682291666666668 10.587201125175806  18.94110576923077 10.327004219409284  C 19.199919871794872 10.066807313642757  19.50641025641026 9.936708860759492  19.860576923076923 9.936708860759492  C 20.064903846153847 9.936708860759492  20.235176282051288 9.971870604781998  20.37139423076923 10.042194092827003  C 21.324919871794872 10.421940928270043  22.091145833333336 11.075949367088608  22.670072115384613 12.0042194092827  Z M 27.032451923076923 9.040084388185653  C 28.19030448717949 10.861462728551336  28.76923076923077 12.848101265822784  28.76923076923077 15  C 28.76923076923077 17.151898734177216  28.19030448717949 19.138537271448662  27.032451923076923 20.959915611814345  C 25.87459935897436 22.781293952180025  24.342147435897438 24.106891701828406  22.435096153846157 24.936708860759495  C 22.258012820512825 25.0070323488045  22.087740384615387 25.042194092827003  21.924278846153843 25.042194092827003  C 21.556490384615387 25.042194092827003  21.243189102564102 24.908579465541493  20.984375 24.641350210970465  C 20.7255608974359 24.374120956399437  20.596153846153847 24.057665260196906  20.596153846153843 23.691983122362867  C 20.596153846153847 23.143459915611814  20.861778846153847 22.72855133614627  21.393028846153843 22.447257383966246  C 22.15584935897436 22.0393811533052  22.673477564102566 21.729957805907173  22.945913461538463 21.518987341772153  C 23.953926282051288 20.759493670886076  24.740584935897438 19.806610407876228  25.305889423076923 18.660337552742615  C 25.87119391025641 17.514064697609  26.153846153846157 16.29395218002813  26.153846153846157 15  C 26.153846153846157 13.706047819971868  25.87119391025641 12.485935302390997  25.305889423076923 11.339662447257382  C 24.740584935897438 10.193389592123768  23.953926282051288 9.240506329113924  22.945913461538463 8.481012658227847  C 22.673477564102566 8.270042194092827  22.15584935897436 7.9606188466947945  21.393028846153843 7.552742616033754  C 20.861778846153847 7.271448663853724  20.596153846153847 6.856540084388186  20.596153846153843 6.3080168776371295  C 20.596153846153847 5.9423347398030915  20.7255608974359 5.62587904360056  20.984375 5.358649789029536  C 21.243189102564102 5.091420534458509  21.54967948717949 4.957805907172997  21.903846153846157 4.957805907172997  C 22.08092948717949 4.957805907172997  22.258012820512825 4.992967651195494  22.435096153846157 5.0632911392405076  C 24.342147435897438 5.893108298171588  25.87459935897436 7.218706047819968  27.032451923076923 9.040084388185653  Z M 31.405048076923077 6.086497890295358  C 33.13501602564103 8.793952180028128  34 11.765119549929672  34 15  C 34 18.23488045007032  33.13501602564103 21.206047819971864  31.405048076923077 23.91350210970464  C 29.67508012820513 26.62095639943741  27.372996794871796 28.614627285513357  24.498798076923077 29.89451476793249  C 24.321714743589745 29.964838255977494  24.14463141025641 30  23.967548076923077 30  C 23.61338141025641 30  23.30689102564103 29.86638537271449  23.048076923076923 29.599156118143462  C 22.789262820512825 29.331926863572434  22.65985576923077 29.0154711673699  22.65985576923077 28.649789029535864  C 22.65985576923077 28.143459915611814  22.92548076923077 27.72855133614627  23.45673076923077 27.405063291139243  C 23.552083333333336 27.348804500703235  23.70532852564103 27.274964838255976  23.916466346153843 27.18354430379747  C 24.127604166666668 27.09212376933896  24.28084935897436 27.018284106891706  24.376201923076923 26.962025316455698  C 25.00280448717949 26.61040787623066  25.561298076923077 26.251758087201125  26.051682692307693 25.88607594936709  C 27.727163461538463 24.60618846694796  29.03485576923077 23.009845288326296  29.974759615384613 21.09704641350211  C 30.914663461538463 19.18424753867792  31.384615384615387 17.151898734177216  31.384615384615387 15  C 31.384615384615387 12.848101265822784  30.914663461538463 10.815752461322083  29.974759615384613 8.90295358649789  C 29.03485576923077 6.990154711673698  27.727163461538463 5.3938115330520375  26.051682692307693 4.113924050632911  C 25.561298076923077 3.748241912798873  25.00280448717949 3.389592123769336  24.376201923076923 3.037974683544303  C 24.28084935897436 2.981715893108295  24.127604166666668 2.9078762306610386  23.916466346153843 2.8164556962025324  C 23.70532852564103 2.725035161744019  23.552083333333336 2.6511954992967626  23.45673076923077 2.594936708860761  C 22.92548076923077 2.2714486638537226  22.65985576923077 1.856540084388184  22.65985576923077 1.3502109704641363  C 22.65985576923077 0.9845288326300949  22.789262820512825 0.6680731364275638  23.048076923076923 0.40084388185653963  C 23.30689102564103 0.1336146272855121  23.61338141025641 0  23.967548076923077 0  C 24.14463141025641 0  24.321714743589745 0.035161744022501606  24.498798076923077 0.10548523206751148  C 27.372996794871796 1.3853727144866346  29.67508012820513 3.379043600562585  31.405048076923077 6.086497890295358  Z " fill-rule="nonzero" fill="#000000" stroke="none" transform="matrix(1 0 0 1 1674 249 )" />
  </g>
</svg>