<?xml version="1.0" encoding="utf-8"?>
<svg version="1.1" xmlns:xlink="http://www.w3.org/1999/xlink" width="40px" height="40px" xmlns="http://www.w3.org/2000/svg">
  <defs>
    <filter x="1510px" y="245px" width="40px" height="40px" filterUnits="userSpaceOnUse" id="filter38">
      <feOffset dx="1" dy="1" in="SourceAlpha" result="shadowOffsetInner" />
      <feGaussianBlur stdDeviation="2.5" in="shadowOffsetInner" result="shadowGaussian" />
      <feComposite in2="shadowGaussian" operator="atop" in="SourceAlpha" result="shadowComposite" />
      <feColorMatrix type="matrix" values="0 0 0 0 0  0 0 0 0 0  0 0 0 0 0  0 0 0 0.6980392156862745 0  " in="shadowComposite" />
    </filter>
    <g id="widget39">
      <path d="M 1529 249  C 1537.4 249  1544 255.6  1544 264  C 1544 272.4  1537.4 279  1529 279  C 1520.6 279  1514 272.4  1514 264  C 1514 255.6  1520.6 249  1529 249  Z " fill-rule="nonzero" fill="#d7d7d7" stroke="none" />
      <path d="M 1529 249.5  C 1537.12 249.5  1543.5 255.88  1543.5 264  C 1543.5 272.12  1537.12 278.5  1529 278.5  C 1520.88 278.5  1514.5 272.12  1514.5 264  C 1514.5 255.88  1520.88 249.5  1529 249.5  Z " stroke-width="1" stroke="#ffffff" fill="none" />
    </g>
  </defs>
  <g transform="matrix(1 0 0 1 -1510 -245 )">
    <use xlink:href="#widget39" filter="url(#filter38)" />
    <use xlink:href="#widget39" />
  </g>
</svg>