<?xml version="1.0" encoding="utf-8"?>
<svg version="1.1" xmlns:xlink="http://www.w3.org/1999/xlink" width="50px" height="50px" xmlns="http://www.w3.org/2000/svg">
  <g transform="matrix(1 0 0 1 -504 -812 )">
    <path d="M 505 837  A 24 24 0 0 1 529 813 A 24 24 0 0 1 553 837 A 24 24 0 0 1 529 861 A 24 24 0 0 1 505 837 Z " fill-rule="nonzero" fill="#ffffff" stroke="none" />
    <path d="M 504.5 837  A 24.5 24.5 0 0 1 529 812.5 A 24.5 24.5 0 0 1 553.5 837 A 24.5 24.5 0 0 1 529 861.5 A 24.5 24.5 0 0 1 504.5 837 Z " stroke-width="1" stroke-dasharray="3,1" stroke="#999999" fill="none" stroke-dashoffset="0.5" />
  </g>
</svg>