<?xml version="1.0" encoding="utf-8"?>
<svg version="1.1" xmlns:xlink="http://www.w3.org/1999/xlink" width="23px" height="35px" xmlns="http://www.w3.org/2000/svg">
  <g transform="matrix(1 0 0 1 -1489 -311 )">
    <path d="M 15.68896484375 8.157552083333332  C 16.25048828125 8.734809027777777  16.53125 9.418402777777777  16.53125 10.208333333333332  C 16.53125 10.405815972222218  16.460123697916668 10.576714409722218  16.31787109375 10.721028645833332  C 16.175618489583336 10.865342881944441  16.007161458333336 10.9375  15.8125 10.9375  C 15.617838541666668 10.9375  15.449381510416668 10.865342881944441  15.30712890625 10.721028645833332  C 15.164876302083336 10.576714409722218  15.09375 10.405815972222218  15.09375 10.208333333333332  C 15.09375 9.509548611111109  14.689453125 8.970269097222218  13.880859375 8.590494791666668  C 13.072265625 8.210720486111109  12.278645833333336 8.020833333333332  11.5 8.020833333333332  C 11.305338541666668 8.020833333333332  11.136881510416668 7.948676215277778  10.99462890625 7.804361979166668  C 10.852376302083336 7.660047743055551  10.781250000000002 7.489149305555551  10.78125 7.291666666666668  C 10.781250000000002 7.094184027777778  10.852376302083336 6.923285590277778  10.99462890625 6.778971354166668  C 11.136881510416668 6.634657118055551  11.305338541666668 6.5625  11.5 6.5625  C 12.248697916666668 6.5625  12.99365234375 6.684027777777778  13.73486328125 6.927083333333332  C 14.47607421875 7.170138888888887  15.12744140625 7.580295138888887  15.68896484375 8.157552083333332  Z M 18.59765625 14.309895833333332  C 19.615885416666668 13.109809027777777  20.125 11.742621527777777  20.125 10.208333333333332  C 20.125 9.114583333333332  19.86669921875 8.096788194444441  19.35009765625 7.154947916666668  C 18.83349609375 6.213107638888887  18.15966796875 5.442165798611109  17.32861328125 4.842122395833332  C 16.49755859375 4.242078993055551  15.57666015625 3.771158854166668  14.56591796875 3.429361979166668  C 13.55517578125 3.087565104166668  12.533203125 2.916666666666668  11.5 2.916666666666668  C 10.466796875 2.916666666666668  9.44482421875 3.087565104166668  8.43408203125 3.429361979166668  C 7.42333984375 3.771158854166668  6.50244140625 4.242078993055551  5.67138671875 4.842122395833332  C 4.84033203125 5.442165798611109  4.16650390625 6.213107638888887  3.64990234375 7.154947916666668  C 3.13330078125 8.096788194444441  2.875 9.114583333333332  2.875 10.208333333333332  C 2.875 11.742621527777777  3.384114583333334 13.109809027777777  4.40234375 14.309895833333332  C 4.552083333333334 14.476996527777777  4.780436197916667 14.727647569444441  5.08740234375 15.061848958333332  C 5.394368489583334 15.396050347222223  5.622721354166667 15.646701388888888  5.7724609375 15.813802083333332  C 7.689127604166668 18.138020833333336  8.744791666666668 20.401475694444446  8.939453125 22.604166666666664  L 14.060546875 22.604166666666664  C 14.255208333333336 20.401475694444446  15.310872395833336 18.138020833333336  17.2275390625 15.813802083333332  C 17.377278645833336 15.646701388888888  17.60563151041667 15.396050347222223  17.91259765625 15.061848958333332  C 18.219563802083336 14.727647569444441  18.447916666666668 14.476996527777777  18.59765625 14.309895833333332  Z M 22.00048828125 6.004231770833332  C 22.666829427083336 7.303059895833332  23 8.704427083333332  23 10.208333333333332  C 23 12.562934027777777  22.228841145833336 14.598524305555555  20.6865234375 16.315104166666668  C 20.012695312500004 17.059461805555554  19.454915364583336 17.720269097222218  19.01318359375 18.297526041666664  C 18.571451822916668 18.87478298611111  18.1259765625 19.600151909722218  17.6767578125 20.4736328125  C 17.2275390625 21.347113715277775  16.972981770833336 22.163628472222218  16.9130859375 22.923177083333336  C 17.616861979166668 23.348524305555554  17.96875 23.971354166666664  17.96875 24.791666666666664  C 17.96875 25.353732638888882  17.781575520833336 25.83984375  17.4072265625 26.25  C 17.781575520833336 26.66015625  17.96875 27.14626736111111  17.96875 27.708333333333332  C 17.96875 28.49826388888889  17.6318359375 29.11349826388889  16.9580078125 29.554036458333332  C 17.152669270833332 29.903428819444443  17.25 30.260416666666668  17.25 30.625  C 17.25 31.32378472222222  17.01416015625 31.86306423611111  16.54248046875 32.24283854166667  C 16.07080078125 32.62261284722222  15.490559895833336 32.8125  14.8017578125 32.8125  C 14.502278645833336 33.48090277777778  14.053059895833336 34.01258680555556  13.4541015625 34.40755208333333  C 12.855143229166668 34.80251736111111  12.203776041666668 35  11.5 35  C 10.796223958333336 35  10.144856770833336 34.80251736111111  9.5458984375 34.40755208333333  C 8.946940104166668 34.01258680555556  8.497721354166668 33.48090277777778  8.1982421875 32.8125  C 7.509440104166668 32.8125  6.92919921875 32.62261284722222  6.45751953125 32.24283854166667  C 5.98583984375 31.86306423611111  5.75 31.32378472222222  5.75 30.625  C 5.75 30.260416666666668  5.847330729166668 29.903428819444443  6.0419921875 29.554036458333332  C 5.3681640625 29.11349826388889  5.03125 28.49826388888889  5.03125 27.708333333333332  C 5.03125 27.14626736111111  5.218424479166667 26.66015625  5.5927734375 26.25  C 5.218424479166667 25.83984375  5.03125 25.353732638888882  5.03125 24.791666666666664  C 5.03125 23.971354166666664  5.383138020833334 23.348524305555554  6.0869140625 22.923177083333336  C 6.027018229166668 22.163628472222218  5.7724609375 21.347113715277775  5.3232421875 20.4736328125  C 4.874023437500001 19.600151909722218  4.428548177083334 18.87478298611111  3.98681640625 18.297526041666664  C 3.545084635416667 17.720269097222218  2.9873046875 17.059461805555554  2.3134765625 16.315104166666668  C 0.7711588541666665 14.598524305555555  0 12.562934027777777  0 10.208333333333332  C 0 8.704427083333332  0.33317057291666663 7.303059895833332  0.99951171875 6.004231770833332  C 1.6658528645833335 4.705403645833332  2.5418294270833335 3.626844618055551  3.62744140625 2.7685546875  C 4.713053385416668 1.9102647569444415  5.94091796875 1.234266493055551  7.31103515625 0.740559895833332  C 8.681152343750002 0.24685329861110938  10.077473958333336 0  11.5 0  C 12.922526041666668 0  14.31884765625 0.24685329861110938  15.68896484375 0.740559895833332  C 17.05908203125 1.234266493055551  18.286946614583336 1.9102647569444415  19.37255859375 2.7685546875  C 20.458170572916668 3.626844618055551  21.334147135416668 4.705403645833332  22.00048828125 6.004231770833332  Z " fill-rule="nonzero" fill="#000000" stroke="none" transform="matrix(1 0 0 1 1489 311 )" />
  </g>
</svg>