<?xml version="1.0" encoding="utf-8"?>
<svg version="1.1" xmlns:xlink="http://www.w3.org/1999/xlink" width="194px" height="194px" xmlns="http://www.w3.org/2000/svg">
  <g transform="matrix(1 0 0 1 -1448 -394 )">
    <path d="M 183.1099537037037 51.518906340895875  C 190.36998456790124 65.47547023463252  194 80.46655031995347  194 96.49214659685865  C 194 109.7339538491371  191.43653549382717 122.37386077176652  186.30960648148147 134.41186736474697  C 181.18267746913583 146.4498739577274  174.29687500000003 156.81384525887142  165.65219907407408 165.50378126817915  C 157.00752314814815 174.1937172774869  146.69753086419755 181.11557106845066  134.72222222222223 186.2693426410704  C 122.74691358024693 191.42311421369016  110.17283950617283 194  97 194  C 83.82716049382717 194  71.25308641975309 191.42311421369016  59.277777777777786 186.2693426410704  C 47.302469135802475 181.11557106845066  36.992476851851855 174.1937172774869  28.347800925925924 165.50378126817915  C 19.703125 156.81384525887142  12.8173225308642 146.4498739577274  7.690393518518519 134.41186736474697  C 2.56346450617284 122.37386077176652  0 109.7339538491371  0 96.49214659685865  C 0 80.46655031995347  3.6300154320987668 65.47547023463252  10.890046296296296 51.518906340895875  C 18.15007716049383 37.562342447159196  28.06712962962963 26.06980802792322  40.6412037037037 17.04130308318791  C 53.215277777777786 8.012798138452599  67.21141975308643 2.3323637773899475  83 0  L 83 25.731239092495628  C 66.08873456790124 29.116928446771382  52.37326388888889 37.430676750048455  41.483217592592595 50.672484002326925  C 30.593171296296298 63.91429125460539  25.148148148148145 79.18751211944928  25.148148148148145 96.49214659685865  C 25.148148148148145 106.27302695365522  27.056712962962962 115.62129144851657  30.87384259259259 124.5369400814427  C 34.69097222222222 133.45258871436883  39.79918981481482 141.12681791739385  46.19849537037037 147.55962769051774  C 52.597800925925924 153.99243746364164  60.23206018518518 159.12739965095986  69.10127314814815 162.96451425247236  C 77.97048611111111 166.80162885398488  87.27006172839506 168.72018615474113  97 168.72018615474113  C 106.72993827160495 168.72018615474113  116.02951388888889 166.80162885398488  124.89872685185185 162.96451425247236  C 133.7679398148148 159.12739965095986  141.40219907407408 153.99243746364164  147.80150462962962 147.55962769051774  C 154.2008101851852 141.12681791739385  159.30902777777777 133.45258871436883  163.12615740740742 124.5369400814427  C 166.94328703703704 115.62129144851657  168.85185185185185 106.27302695365522  168.85185185185185 96.49214659685865  C 168.85185185185185 79.18751211944928  163.4068287037037 63.91429125460539  152.51678240740742 50.672484002326925  C 141.62673611111111 37.430676750048455  127.91126543209879 29.116928446771382  111 25.731239092495628  L 111 0  C 126.7885802469136 2.3323637773899475  140.78472222222223 8.012798138452599  153.3587962962963 17.04130308318791  C 165.93287037037038 26.06980802792322  175.84992283950618 37.562342447159196  183.1099537037037 51.518906340895875  Z " fill-rule="nonzero" fill="#aaaaaa" stroke="none" transform="matrix(1 0 0 1 1448 394 )" />
  </g>
</svg>