<?xml version="1.0" encoding="utf-8"?>
<svg version="1.1" xmlns:xlink="http://www.w3.org/1999/xlink" width="71px" height="71px" xmlns="http://www.w3.org/2000/svg">
  <g transform="matrix(1 0 0 1 -940 -674 )">
    <path d="M 53.25 32.95768229166667  C 54.236111111111114 33.51236979166667  54.72916666666667 34.35980902777778  54.72916666666667 35.5  C 54.72916666666667 36.640190972222214  54.236111111111114 37.487630208333336  53.25 38.042317708333336  L 28.104166666666664 52.833984375  C 27.641927083333336 53.111328125  27.148871527777782 53.25  26.625 53.25  C 26.131944444444446 53.25  25.638888888888893 53.12673611111111  25.145833333333336 52.880208333333336  C 24.15972222222223 52.29470486111111  23.666666666666664 51.43185763888888  24 50.291666666666664  L 24 20.708333333333332  C 23.666666666666664 19.568142361111107  24.15972222222223 18.705295138888886  25.145833333333336 18.119791666666668  C 26.162760416666664 17.565104166666668  27.148871527777782 17.58051215277778  28.104166666666664 18.166015625  L 53.25 32.95768229166667  Z M 57.271484375 48.119140625  C 59.52105034722222 44.267144097222214  60.64583333333333 40.06076388888889  60.64583333333333 35.5  C 60.64583333333333 30.939236111111107  59.52105034722222 26.73285590277778  57.271484375 22.880859375  C 55.021918402777786 19.028862847222214  51.971137152777786 15.978081597222214  48.119140625 13.728515625  C 44.26714409722222 11.478949652777777  40.06076388888889 10.35416666666667  35.5 10.35416666666667  C 30.93923611111111 10.35416666666667  26.732855902777782 11.478949652777777  22.880859375 13.728515625  C 19.02886284722222 15.978081597222214  15.978081597222223 19.028862847222214  13.728515625 22.880859375  C 11.478949652777779 26.73285590277778  10.354166666666668 30.939236111111107  10.354166666666668 35.5  C 10.354166666666668 40.06076388888889  11.478949652777779 44.267144097222214  13.728515625 48.119140625  C 15.978081597222223 51.97113715277777  19.02886284722222 55.02191840277778  22.880859375 57.271484375  C 26.732855902777782 59.52105034722222  30.93923611111111 60.64583333333333  35.5 60.64583333333333  C 40.06076388888889 60.64583333333333  44.26714409722222 59.52105034722222  48.119140625 57.271484375  C 51.971137152777786 55.02191840277778  55.021918402777786 51.97113715277777  57.271484375 48.119140625  Z M 66.23893229166667 17.6806640625  C 69.41297743055554 23.119683159722214  71 29.059461805555546  71 35.5  C 71 41.94053819444444  69.41297743055554 47.88031684027777  66.23893229166667 53.3193359375  C 63.064887152777786 58.75835503472222  58.75835503472222 63.06488715277778  53.3193359375 66.23893229166667  C 47.880316840277786 69.41297743055556  41.94053819444444 71  35.5 71  C 29.059461805555557 71  23.11968315972222 69.41297743055556  17.6806640625 66.23893229166667  C 12.241644965277779 63.06488715277778  7.935112847222223 58.75835503472222  4.761067708333334 53.3193359375  C 1.5870225694444442 47.88031684027777  0 41.94053819444444  0 35.5  C 0 29.059461805555546  1.5870225694444442 23.119683159722214  4.761067708333334 17.6806640625  C 7.935112847222223 12.241644965277777  12.241644965277779 7.935112847222215  17.6806640625 4.76106770833333  C 23.11968315972222 1.5870225694444384  29.059461805555557 0  35.5 0  C 41.94053819444444 0  47.880316840277786 1.5870225694444384  53.3193359375 4.76106770833333  C 58.75835503472222 7.935112847222215  63.064887152777786 12.241644965277777  66.23893229166667 17.6806640625  Z " fill-rule="nonzero" fill="#ec808d" stroke="none" transform="matrix(1 0 0 1 940 674 )" />
  </g>
</svg>