<?xml version="1.0" encoding="utf-8"?>
<svg version="1.1" xmlns:xlink="http://www.w3.org/1999/xlink" width="71px" height="71px" xmlns="http://www.w3.org/2000/svg">
  <g transform="matrix(1 0 0 1 -1513 -666 )">
    <path d="M 17.6806640625 4.76106770833333  C 23.11968315972222 1.5870225694444384  29.059461805555557 0  35.5 0  C 41.94053819444444 0  47.880316840277786 1.5870225694444384  53.3193359375 4.76106770833333  C 58.75835503472222 7.935112847222215  63.064887152777786 12.241644965277777  66.23893229166667 17.6806640625  C 69.41297743055554 23.119683159722214  71 29.059461805555546  71 35.5  C 71 41.94053819444444  69.41297743055554 47.88031684027777  66.23893229166667 53.3193359375  C 63.064887152777786 58.75835503472222  58.75835503472222 63.06488715277778  53.3193359375 66.23893229166667  C 47.880316840277786 69.41297743055556  41.94053819444444 71  35.5 71  C 29.059461805555557 71  23.11968315972222 69.41297743055556  17.6806640625 66.23893229166667  C 12.241644965277779 63.06488715277778  7.935112847222223 58.75835503472222  4.761067708333334 53.3193359375  C 1.5870225694444442 47.88031684027777  0 41.94053819444444  0 35.5  C 0 29.059461805555546  1.5870225694444442 23.119683159722214  4.761067708333334 17.6806640625  C 7.935112847222223 12.241644965277777  12.241644965277779 7.935112847222215  17.6806640625 4.76106770833333  Z M 22.880859375 57.271484375  C 26.732855902777782 59.52105034722222  30.93923611111111 60.64583333333333  35.5 60.64583333333333  C 40.06076388888889 60.64583333333333  44.26714409722222 59.52105034722222  48.119140625 57.271484375  C 51.971137152777786 55.02191840277778  55.021918402777786 51.97113715277777  57.271484375 48.119140625  C 59.52105034722222 44.267144097222214  60.64583333333333 40.06076388888889  60.64583333333333 35.5  C 60.64583333333333 30.939236111111107  59.52105034722222 26.73285590277778  57.271484375 22.880859375  C 55.021918402777786 19.028862847222214  51.971137152777786 15.978081597222214  48.119140625 13.728515625  C 44.26714409722222 11.478949652777777  40.06076388888889 10.35416666666667  35.5 10.35416666666667  C 30.93923611111111 10.35416666666667  26.732855902777782 11.478949652777777  22.880859375 13.728515625  C 19.02886284722222 15.978081597222214  15.978081597222223 19.028862847222214  13.728515625 22.880859375  C 11.478949652777779 26.73285590277778  10.354166666666668 30.939236111111107  10.354166666666668 35.5  C 10.354166666666668 40.06076388888889  11.478949652777779 44.267144097222214  13.728515625 48.119140625  C 15.978081597222223 51.97113715277777  19.02886284722222 55.02191840277778  22.880859375 57.271484375  Z M 48.8125 50  L 22.1875 50  C 21.75607638888889 50.291666666666664  21.401692708333336 50.152994791666664  21.124348958333336 49.875651041666664  C 20.847005208333336 49.598307291666664  20.708333333333336 49.24392361111111  21 48.8125  L 21 22.1875  C 20.708333333333336 21.756076388888886  20.847005208333336 21.401692708333332  21.124348958333336 21.124348958333332  C 21.401692708333336 20.847005208333332  21.75607638888889 20.708333333333332  22.1875 21  L 48.8125 21  C 49.243923611111114 20.708333333333332  49.59830729166667 20.847005208333332  49.87565104166667 21.124348958333332  C 50.15299479166667 21.401692708333332  50.29166666666667 21.756076388888886  50 22.1875  L 50 48.8125  C 50.29166666666667 49.24392361111111  50.15299479166667 49.598307291666664  49.87565104166667 49.875651041666664  C 49.59830729166667 50.152994791666664  49.243923611111114 50.291666666666664  48.8125 50  Z " fill-rule="nonzero" fill="#009dd9" stroke="none" fill-opacity="0.7764705882352941" transform="matrix(1 0 0 1 1513 666 )" />
  </g>
</svg>