<?xml version="1.0" encoding="utf-8"?>
<svg version="1.1" xmlns:xlink="http://www.w3.org/1999/xlink" width="50px" height="50px" xmlns="http://www.w3.org/2000/svg">
  <defs>
    <mask fill="white" id="clip28">
      <path d="M 25 50  C 11.75798593756491 50  1.1999147796664715 40.158876016698855  0.09546456147563731 27.246306085267634  C 0.032244742331670295 26.507177854493875  0 25.757985937564854  0 25  C 0 19.787668305371426  1.524757237975109 14.991179493827076  4.161412468309095 11.023392810982955  C 8.057223584744577 5.160757723607276  14.380505648983046 1.107326677993342  21.799468945014326 0.1948893901513884  C 22.845765348728776 0.0662083582079731  23.913854261881454 0  25 0  C 39 0  50 11  50 25  C 50 27.058113162095992  49.762274858837145 29.051392194783944  49.31224095271864 30.95442072185665  C 46.70098804444115 41.99645268498796  36.94188683790401 50  25 50  Z " fill-rule="evenodd" />
    </mask>
  </defs>
  <g transform="matrix(1 0 0 1 -869 -804 )">
    <path d="M 25 50  C 11.75798593756491 50  1.1999147796664715 40.158876016698855  0.09546456147563731 27.246306085267634  C 0.032244742331670295 26.507177854493875  0 25.757985937564854  0 25  C 0 19.787668305371426  1.524757237975109 14.991179493827076  4.161412468309095 11.023392810982955  C 8.057223584744577 5.160757723607276  14.380505648983046 1.107326677993342  21.799468945014326 0.1948893901513884  C 22.845765348728776 0.0662083582079731  23.913854261881454 0  25 0  C 39 0  50 11  50 25  C 50 27.058113162095992  49.762274858837145 29.051392194783944  49.31224095271864 30.95442072185665  C 46.70098804444115 41.99645268498796  36.94188683790401 50  25 50  Z " fill-rule="nonzero" fill="#aaaaaa" stroke="none" transform="matrix(1 0 0 1 869 804 )" />
    <path d="M 25 50  C 11.75798593756491 50  1.1999147796664715 40.158876016698855  0.09546456147563731 27.246306085267634  C 0.032244742331670295 26.507177854493875  0 25.757985937564854  0 25  C 0 19.787668305371426  1.524757237975109 14.991179493827076  4.161412468309095 11.023392810982955  C 8.057223584744577 5.160757723607276  14.380505648983046 1.107326677993342  21.799468945014326 0.1948893901513884  C 22.845765348728776 0.0662083582079731  23.913854261881454 0  25 0  C 39 0  50 11  50 25  C 50 27.058113162095992  49.762274858837145 29.051392194783944  49.31224095271864 30.95442072185665  C 46.70098804444115 41.99645268498796  36.94188683790401 50  25 50  Z " stroke-width="2" stroke-dasharray="3,1" stroke="#999999" fill="none" transform="matrix(1 0 0 1 869 804 )" mask="url(#clip28)" />
  </g>
</svg>