<?xml version="1.0" encoding="utf-8"?>
<svg version="1.1" xmlns:xlink="http://www.w3.org/1999/xlink" width="50px" height="50px" xmlns="http://www.w3.org/2000/svg">
  <g transform="matrix(1 0 0 1 -1777 -804 )">
    <path d="M 1778 829  A 24 24 0 0 1 1802 805 A 24 24 0 0 1 1826 829 A 24 24 0 0 1 1802 853 A 24 24 0 0 1 1778 829 Z " fill-rule="nonzero" fill="#949494" stroke="none" />
    <path d="M 1777.5 829  A 24.5 24.5 0 0 1 1802 804.5 A 24.5 24.5 0 0 1 1826.5 829 A 24.5 24.5 0 0 1 1802 853.5 A 24.5 24.5 0 0 1 1777.5 829 Z " stroke-width="1" stroke-dasharray="3,1" stroke="#999999" fill="none" stroke-dashoffset="0.5" />
  </g>
</svg>