<?xml version="1.0" encoding="utf-8"?>
<svg version="1.1" xmlns:xlink="http://www.w3.org/1999/xlink" width="50px" height="50px" xmlns="http://www.w3.org/2000/svg">
  <defs>
    <mask fill="white" id="clip29">
      <path d="M 25 50  C 11.75798593756491 50  1.1999147796664715 40.158876016698855  0.09546456147563731 27.246306085267634  C 0.032244742331670295 26.507177854493875  0 25.757985937564854  0 25  C 0 11  11 0  25 0  C 39 0  50 11  50 25  C 50 39  39 50  25 50  Z " fill-rule="evenodd" />
    </mask>
  </defs>
  <g transform="matrix(1 0 0 1 -995 -804 )">
    <path d="M 25 50  C 11.75798593756491 50  1.1999147796664715 40.158876016698855  0.09546456147563731 27.246306085267634  C 0.032244742331670295 26.507177854493875  0 25.757985937564854  0 25  C 0 11  11 0  25 0  C 39 0  50 11  50 25  C 50 39  39 50  25 50  Z " fill-rule="nonzero" fill="#ffffff" stroke="none" transform="matrix(1 0 0 1 995 804 )" />
    <path d="M 25 50  C 11.75798593756491 50  1.1999147796664715 40.158876016698855  0.09546456147563731 27.246306085267634  C 0.032244742331670295 26.507177854493875  0 25.757985937564854  0 25  C 0 11  11 0  25 0  C 39 0  50 11  50 25  C 50 39  39 50  25 50  Z " stroke-width="2" stroke-dasharray="3,1" stroke="#999999" fill="none" transform="matrix(1 0 0 1 995 804 )" mask="url(#clip29)" />
  </g>
</svg>