<?xml version="1.0" encoding="utf-8"?>
<svg version="1.1" xmlns:xlink="http://www.w3.org/1999/xlink" width="70px" height="70px" xmlns="http://www.w3.org/2000/svg">
  <g transform="matrix(1 0 0 1 -299 -723 )">
    <path d="M 334 723  C 353.6 723  369 738.4  369 758  C 369 777.6  353.6 793  334 793  C 314.4 793  299 777.6  299 758  C 299 738.4  314.4 723  334 723  Z " fill-rule="nonzero" fill="#ec808d" stroke="none" />
    <path d="M 334 723.5  C 353.32 723.5  368.5 738.68  368.5 758  C 368.5 777.32  353.32 792.5  334 792.5  C 314.68 792.5  299.5 777.32  299.5 758  C 299.5 738.68  314.68 723.5  334 723.5  Z " stroke-width="1" stroke="#797979" fill="none" />
  </g>
</svg>