<?xml version="1.0" encoding="utf-8"?>
<svg version="1.1" xmlns:xlink="http://www.w3.org/1999/xlink" width="70px" height="70px" xmlns="http://www.w3.org/2000/svg">
  <g transform="matrix(1 0 0 1 -452 -723 )">
    <path d="M 487 723  C 506.6 723  522 738.4  522 758  C 522 777.6  506.6 793  487 793  C 467.4 793  452 777.6  452 758  C 452 738.4  467.4 723  487 723  Z " fill-rule="nonzero" fill="#009dd9" stroke="none" fill-opacity="0.7764705882352941" />
    <path d="M 487 723.5  C 506.32 723.5  521.5 738.68  521.5 758  C 521.5 777.32  506.32 792.5  487 792.5  C 467.68 792.5  452.5 777.32  452.5 758  C 452.5 738.68  467.68 723.5  487 723.5  Z " stroke-width="1" stroke="#797979" fill="none" />
  </g>
</svg>