<?xml version="1.0" encoding="utf-8"?>
<svg version="1.1" xmlns:xlink="http://www.w3.org/1999/xlink" width="23px" height="32px" xmlns="http://www.w3.org/2000/svg">
  <g transform="matrix(1 0 0 1 -322 -742 )">
    <path d="M 22.62065972222222 12.673076923076923  C 22.87355324074074 12.916666666666664  23 13.2051282051282  23 13.53846153846154  L 23 16  C 23 18.833333333333332  22.018373842592595 21.298076923076923  20.05512152777778 23.39423076923077  C 18.091869212962965 25.490384615384613  15.666087962962964 26.692307692307693  12.777777777777779 27  L 12.777777777777779 29.53846153846154  L 17.88888888888889 29.53846153846154  C 18.234953703703702 29.53846153846154  18.53443287037037 29.66025641025641  18.78732638888889 29.903846153846153  C 19.04021990740741 30.147435897435898  19.16666666666667 30.435897435897438  19.166666666666668 30.76923076923077  C 19.16666666666667 31.102564102564102  19.04021990740741 31.39102564102564  18.78732638888889 31.634615384615383  C 18.53443287037037 31.87820512820513  18.234953703703702 32  17.88888888888889 32  L 5.111111111111111 32  C 4.765046296296297 32  4.46556712962963 31.87820512820513  4.212673611111111 31.634615384615383  C 3.959780092592592 31.39102564102564  3.833333333333333 31.102564102564102  3.833333333333333 30.76923076923077  C 3.833333333333333 30.435897435897438  3.959780092592592 30.147435897435898  4.212673611111111 29.903846153846153  C 4.46556712962963 29.66025641025641  4.765046296296297 29.53846153846154  5.111111111111111 29.53846153846154  L 10.222222222222221 29.53846153846154  L 10.222222222222221 27  C 7.333912037037037 26.692307692307693  4.908130787037037 25.490384615384613  2.9448784722222223 23.39423076923077  C 0.9816261574074073 21.298076923076923  0 18.833333333333332  0 16  L 0 13.53846153846154  C 0 13.2051282051282  0.12644675925925927 12.916666666666664  0.3793402777777778 12.673076923076923  C 0.6322337962962963 12.429487179487179  0.9317129629629631 12.307692307692307  1.2777777777777777 12.307692307692307  C 1.6238425925925928 12.307692307692307  1.9233217592592593 12.429487179487179  2.1762152777777777 12.673076923076923  C 2.4291087962962963 12.916666666666664  2.5555555555555554 13.2051282051282  2.5555555555555554 13.53846153846154  L 2.5555555555555554 16  C 2.5555555555555554 18.37179487179487  3.430700231481482 20.400641025641022  5.180989583333333 22.08653846153846  C 6.931278935185185 23.772435897435894  9.03761574074074 24.615384615384613  11.5 24.615384615384613  C 13.96238425925926 24.615384615384613  16.068721064814813 23.772435897435894  17.819010416666668 22.08653846153846  C 19.56929976851852 20.400641025641022  20.444444444444443 18.37179487179487  20.444444444444443 16  L 20.444444444444443 13.53846153846154  C 20.444444444444443 13.2051282051282  20.570891203703706 12.916666666666664  20.82378472222222 12.673076923076923  C 21.07667824074074 12.429487179487179  21.37615740740741 12.307692307692307  21.72222222222222 12.307692307692307  C 22.06828703703704 12.307692307692307  22.367766203703706 12.429487179487179  22.62065972222222 12.673076923076923  Z M 16.01215277777778 1.8076923076923066  C 17.263310185185187 3.012820512820511  17.88888888888889 4.46153846153846  17.88888888888889 6.153846153846153  L 17.88888888888889 16  C 17.88888888888889 17.692307692307693  17.263310185185187 19.14102564102564  16.01215277777778 20.346153846153847  C 14.76099537037037 21.55128205128205  13.256944444444443 22.153846153846153  11.5 22.153846153846153  C 9.743055555555557 22.153846153846153  8.239004629629632 21.55128205128205  6.987847222222221 20.346153846153847  C 5.736689814814816 19.14102564102564  5.111111111111111 17.692307692307693  5.111111111111111 16  L 5.111111111111111 6.153846153846153  C 5.111111111111111 4.46153846153846  5.736689814814816 3.012820512820511  6.987847222222221 1.8076923076923066  C 8.239004629629632 0.6025641025641058  9.743055555555557 0  11.5 0  C 13.256944444444443 0  14.76099537037037 0.6025641025641058  16.01215277777778 1.8076923076923066  Z " fill-rule="nonzero" fill="#ffffff" stroke="none" transform="matrix(1 0 0 1 322 742 )" />
  </g>
</svg>