<?xml version="1.0" encoding="utf-8"?>
<svg version="1.1" xmlns:xlink="http://www.w3.org/1999/xlink" width="32px" height="32px" xmlns="http://www.w3.org/2000/svg">
  <g transform="matrix(1 0 0 1 -471 -742 )">
    <path d="M 31.363636363636363 12.272727272727273  C 31.78787878787879 12.696969696969692  32 13.212121212121211  32 13.818181818181817  L 32 18.18181818181818  C 32 18.78787878787879  31.78787878787879 19.3030303030303  31.363636363636363 19.727272727272727  C 30.93939393939394 20.15151515151515  30.424242424242426 20.363636363636363  29.818181818181817 20.363636363636363  L 20.363636363636363 20.363636363636363  L 20.363636363636363 29.81818181818182  C 20.363636363636363 30.424242424242426  20.151515151515152 30.939393939393938  19.727272727272727 31.363636363636363  C 19.303030303030308 31.78787878787879  18.78787878787879 32  18.181818181818183 32  L 13.818181818181818 32  C 13.212121212121213 32  12.696969696969699 31.78787878787879  12.272727272727273 31.363636363636363  C 11.84848484848485 30.939393939393938  11.636363636363637 30.424242424242426  11.636363636363637 29.81818181818182  L 11.636363636363637 20.363636363636363  L 2.1818181818181817 20.363636363636363  C 1.575757575757576 20.363636363636363  1.0606060606060608 20.15151515151515  0.6363636363636364 19.727272727272727  C 0.2121212121212121 19.3030303030303  0 18.78787878787879  0 18.18181818181818  L 0 13.818181818181817  C 0 13.212121212121211  0.2121212121212121 12.696969696969692  0.6363636363636364 12.272727272727273  C 1.0606060606060608 11.848484848484848  1.575757575757576 11.636363636363637  2.1818181818181817 11.636363636363637  L 11.636363636363637 11.636363636363637  L 11.636363636363637 2.1818181818181834  C 11.636363636363637 1.5757575757575744  11.84848484848485 1.0606060606060588  12.272727272727273 0.6363636363636367  C 12.696969696969699 0.21212121212121104  13.212121212121213 0  13.818181818181818 0  L 18.181818181818183 0  C 18.78787878787879 0  19.303030303030308 0.21212121212121104  19.727272727272727 0.6363636363636367  C 20.151515151515152 1.0606060606060588  20.363636363636363 1.5757575757575744  20.363636363636363 2.1818181818181834  L 20.363636363636363 11.636363636363637  L 29.818181818181817 11.636363636363637  C 30.424242424242426 11.636363636363637  30.93939393939394 11.848484848484848  31.363636363636363 12.272727272727273  Z " fill-rule="nonzero" fill="#ffffff" stroke="none" transform="matrix(1 0 0 1 471 742 )" />
  </g>
</svg>