<?xml version="1.0" encoding="utf-8"?>
<svg version="1.1" xmlns:xlink="http://www.w3.org/1999/xlink" width="148px" height="148px" xmlns="http://www.w3.org/2000/svg">
  <g transform="matrix(1 0 0 1 -844 -314 )">
    <path d="M 918 314  C 959.44 314  992 346.56  992 388  C 992 429.44  959.44 462  918 462  C 876.56 462  844 429.44  844 388  C 844 346.56  876.56 314  918 314  Z " fill-rule="nonzero" fill="#ffffff" stroke="none" />
    <path d="M 918 314.5  C 959.16 314.5  991.5 346.84  991.5 388  C 991.5 429.16  959.16 461.5  918 461.5  C 876.84 461.5  844.5 429.16  844.5 388  C 844.5 346.84  876.84 314.5  918 314.5  Z " stroke-width="1" stroke="#797979" fill="none" />
  </g>
</svg>