<?xml version="1.0" encoding="utf-8"?>
<svg version="1.1" xmlns:xlink="http://www.w3.org/1999/xlink" width="65px" height="50px" xmlns="http://www.w3.org/2000/svg">
  <g transform="matrix(1 0 0 1 -890 -363 )">
    <path d="M 56.314655172413794 18.46590909090909  C 57.62212643678161 17.14015151515151  58.275862068965516 15.530303030303028  58.275862068965516 13.636363636363635  C 58.275862068965516 11.742424242424237  57.62212643678161 10.132575757575758  56.314655172413794 8.806818181818182  C 55.00718390804598 7.481060606060602  53.41954022988506 6.8181818181818175  51.55172413793104 6.8181818181818175  L 49 6.8181818181818175  L 49 20.454545454545453  L 51.55172413793104 20.454545454545453  C 53.41954022988506 20.454545454545453  55.00718390804598 19.791666666666664  56.314655172413794 18.46590909090909  Z M 2.6266163793103448 47.33664772727273  C 0.8755387931034482 45.56107954545455  0 43.41856060606061  0 41  L 62.758620689655174 41  C 62.758620689655174 43.41856060606061  61.88308189655172 45.56107954545455  60.132004310344826 47.33664772727273  C 58.380926724137936 49.112215909090914  56.26795977011495 50  53.793103448275865 50  L 8.96551724137931 50  C 6.490660919540231 50  4.377693965517242 49.112215909090914  2.6266163793103448 47.33664772727273  Z M 61.060075431034484 3.995028409090912  C 63.686691810344826 6.6583806818181825  65 9.872159090909088  65 13.636363636363635  C 65 17.400568181818183  63.686691810344826 20.61434659090909  61.060075431034484 23.277698863636363  C 58.433459051724135 25.941051136363637  55.26400862068966 27.27272727272727  51.55172413793104 27.27272727272727  L 49.310344827586206 27.27272727272727  L 49.310344827586206 28.409090909090907  C 49.310344827586206 30.58712121212121  48.539870689655174 32.45738636363637  46.9989224137931 34.01988636363637  C 45.45797413793104 35.58238636363637  43.61350574712644 36.36363636363637  41.46551724137932 36  L 16.810344827586206 36  C 14.66235632183908 36.36363636363637  12.817887931034484 35.58238636363637  11.276939655172415 34.01988636363637  C 9.735991379310345 32.45738636363637  8.96551724137931 30.58712121212121  9 28.409090909090907  L 9 2.2727272727272707  C 8.96551724137931 1.6571969696969668  9.187320402298853 1.1245265151515083  9.63092672413793 0.6747159090909116  C 10.074533045977013 0.22490530303029832  10.59985632183908 0  11.206896551724139 0  L 51.55172413793104 0  C 55.26400862068966 0  58.433459051724135 1.3316761363636354  61.060075431034484 3.995028409090912  Z " fill-rule="nonzero" fill="#000000" stroke="none" transform="matrix(1 0 0 1 890 363 )" />
  </g>
</svg>