<?xml version="1.0" encoding="utf-8"?>
<svg version="1.1" xmlns:xlink="http://www.w3.org/1999/xlink" width="45px" height="53px" xmlns="http://www.w3.org/2000/svg">
  <g transform="matrix(1 0 0 1 -1090 -362 )">
    <path d="M 44.0625 3.785714285714284  L 41.25 3.785714285714284  C 41.25 8.931919642857142  40.2099609375 13.481677827380953  38.1298828125 17.434988839285715  C 36.0498046875 21.388299851190474  33.44726562500001 24.409970238095237  30.322265625 26.5  C 33.44726562500001 28.59002976190476  36.0498046875 31.611700148809522  38.1298828125 35.565011160714285  C 40.2099609375 39.51832217261905  41.25 44.06808035714286  41.25 49.214285714285715  L 44.0625 49.214285714285715  C 44.33593750000001 49.214285714285715  44.560546875 49.30301339285714  44.736328125 49.48046875  C 44.912109375 49.65792410714286  45 49.88467261904762  45 50.160714285714285  L 45 52.05357142857142  C 45 52.329613095238095  44.912109375 52.55636160714286  44.736328125 52.733816964285715  C 44.560546875 52.91127232142858  44.33593750000001 53  44.0625 53  L 0.9375 53  C 0.6640625000000001 53  0.43945312500000006 52.91127232142858  0.263671875 52.733816964285715  C 0.087890625 52.55636160714286  0 52.329613095238095  0 52.05357142857142  L 0 50.160714285714285  C 0 49.88467261904762  0.087890625 49.65792410714286  0.263671875 49.48046875  C 0.43945312500000006 49.30301339285714  0.6640625000000001 49.214285714285715  0.9375 49.214285714285715  L 3.75 49.214285714285715  C 3.75 44.06808035714286  4.7900390625 39.51832217261905  6.8701171875 35.565011160714285  C 8.9501953125 31.611700148809522  11.552734375000002 28.59002976190476  14.677734375 26.5  C 11.552734375000002 24.409970238095237  8.9501953125 21.388299851190474  6.8701171875 17.434988839285715  C 4.7900390625 13.481677827380953  3.75 8.931919642857142  3.75 3.785714285714284  L 0.9375 3.785714285714284  C 0.6640625000000001 3.785714285714284  0.43945312500000006 3.696986607142858  0.263671875 3.51953125  C 0.087890625 3.342075892857142  0 3.1153273809523787  0 2.839285714285716  L 0 0.946428571428574  C 0 0.6703869047618994  0.087890625 0.443638392857142  0.263671875 0.26618303571428403  C 0.43945312500000006 0.08872767857142605  0.6640625000000001 0  0.9375 0  L 44.0625 0  C 44.33593750000001 0  44.560546875 0.08872767857142605  44.736328125 0.26618303571428403  C 44.912109375 0.443638392857142  45 0.6703869047618994  45 0.946428571428574  L 45 2.839285714285716  C 45 3.1153273809523787  44.912109375 3.342075892857142  44.736328125 3.51953125  C 44.560546875 3.696986607142858  44.33593750000001 3.785714285714284  44.0625 3.785714285714284  Z M 37.236328125 8  C 37.412109375 6.368675595238095  37.5 5.106770833333331  37.5 4  L 7.5 4  C 7.5 5.087053571428574  7.587890625 6.348958333333331  7.763671875 8  L 37.236328125 8  Z M 7.5 49  L 37.5 49  C 37.5 46.651041666666664  37.16796875 44.19131324404762  36.50390625 41.83510044642857  C 35.83984375000001 39.47888764880952  34.9560546875 37.428292410714285  33.8525390625 35.68331473214286  C 32.7490234375 33.93833705357143  31.513671875000004 32.43982514880952  30.146484375 31.187779017857142  C 28.779296875 29.93573288690476  27.353515625 29.00409226190476  25.869140625 28.392857142857142  L 19.130859375 28.392857142857142  C 17.646484375000004 29.00409226190476  16.220703125 29.93573288690476  14.853515625 31.187779017857142  C 13.486328125000002 32.43982514880952  12.2509765625 33.93833705357143  11.1474609375 35.68331473214286  C 10.0439453125 37.428292410714285  9.16015625 39.47888764880952  8.49609375 41.83510044642857  C 7.832031250000002 44.19131324404762  7.5 46.651041666666664  7.5 49  Z " fill-rule="nonzero" fill="#000000" stroke="none" transform="matrix(1 0 0 1 1090 362 )" />
  </g>
</svg>