<?xml version="1.0" encoding="utf-8"?>
<svg version="1.1" xmlns:xlink="http://www.w3.org/1999/xlink" width="69px" height="43px" xmlns="http://www.w3.org/2000/svg">
  <g transform="matrix(1 0 0 1 -891 -559 )">
    <path d="M 9 2.150000000000002  L 9 25  L 66.84375 25  C 67.427734375 25.8  67.93310546875 26.012760416666662  68.35986328125 26.43828125  C 68.78662109375 26.863802083333333  69 27.36770833333333  69 27.95  L 69 43  L 60.375 43  L 60.375 34  L 8.625 34  L 8.625 43  L 0 43  L 0 2.150000000000002  C 0 1.5677083333333302  0.21337890625 1.0638020833333302  0.64013671875 0.6382812500000019  C 1.06689453125 0.21276041666666412  1.5722656250000002 0  2.15625 0  L 6.46875 0  C 7.052734375 0  7.55810546875 0.21276041666666412  7.98486328125 0.6382812500000019  C 8.41162109375 1.0638020833333302  8.625 1.5677083333333302  9 2.150000000000002  Z M 25.50439453125 21.130468750000002  C 27.18896484375 19.450781250000002  28.03125 17.42395833333333  28.03125 15.049999999999999  C 28.03125 12.676041666666663  27.18896484375 10.649218750000001  25.50439453125 8.969531250000001  C 23.81982421875 7.289843750000001  21.787109375000004 6.450000000000001  19.40625 6.450000000000001  C 17.025390625 6.450000000000001  14.99267578125 7.289843750000001  13.30810546875 8.969531250000001  C 11.62353515625 10.649218750000001  10.78125 12.676041666666663  10.78125 15.049999999999999  C 10.78125 17.42395833333333  11.62353515625 19.450781250000002  13.30810546875 21.130468750000002  C 14.99267578125 22.810156250000002  17.025390625 23.650000000000002  19.40625 23.650000000000002  C 21.787109375000004 23.650000000000002  23.81982421875 22.810156250000002  25.50439453125 21.130468750000002  Z M 31 23  L 69 23  L 69 21.5  C 69 17.939062500000002  67.736572265625 14.898828124999998  65.209716796875 12.379296874999998  C 62.682861328125 9.859765624999998  59.6337890625 8.599999999999998  56.0625 9  L 32.34375 9  C 31.759765625000004 8.599999999999998  31.254394531250004 8.812760416666663  30.82763671875 9.23828125  C 30.40087890625 9.663802083333334  30.1875 10.167708333333334  31 10.75  L 31 23  Z " fill-rule="nonzero" fill="#000000" stroke="none" transform="matrix(1 0 0 1 891 559 )" />
  </g>
</svg>