<?xml version="1.0" encoding="utf-8"?>
<svg version="1.1" xmlns:xlink="http://www.w3.org/1999/xlink" width="53px" height="53px" xmlns="http://www.w3.org/2000/svg">
  <g transform="matrix(1 0 0 1 -1084 -554 )">
    <path d="M 51.94602272727273 20.326704545454547  C 52.64867424242424 21.02935606060605  53 21.882575757575754  53 22.886363636363633  L 53 30.11363636363636  C 53 31.117424242424246  52.64867424242424 31.970643939393938  51.94602272727273 32.67329545454545  C 51.24337121212122 33.37594696969696  50.390151515151516 33.72727272727273  49.38636363636363 33  L 33 33  L 33 49.38636363636364  C 33.72727272727273 50.390151515151516  33.37594696969697 51.24337121212121  32.67329545454545 51.94602272727273  C 31.97064393939395 52.64867424242424  31.117424242424246 53  30.113636363636367 53  L 22.886363636363637 53  C 21.882575757575758 53  21.029356060606062 52.64867424242424  20.326704545454547 51.94602272727273  C 19.62405303030303 51.24337121212121  19.272727272727273 50.390151515151516  20 49.38636363636364  L 20 33  L 3.6136363636363633 33  C 2.6098484848484853 33.72727272727273  1.756628787878788 33.37594696969696  1.0539772727272727 32.67329545454545  C 0.3513257575757575 31.970643939393938  0 31.117424242424246  0 30.11363636363636  L 0 22.886363636363633  C 0 21.882575757575754  0.3513257575757575 21.02935606060605  1.0539772727272727 20.326704545454547  C 1.756628787878788 19.624053030303028  2.6098484848484853 19.272727272727273  3.6136363636363633 20  L 20 20  L 20 3.6136363636363664  C 19.272727272727273 2.6098484848484826  19.62405303030303 1.756628787878785  20.326704545454547 1.0539772727272734  C 21.029356060606062 0.3513257575757558  21.882575757575758 0  22.886363636363637 0  L 30.113636363636367 0  C 31.117424242424246 0  31.97064393939395 0.3513257575757558  32.67329545454545 1.0539772727272734  C 33.37594696969697 1.756628787878785  33.72727272727273 2.6098484848484826  33 3.6136363636363664  L 33 20  L 49.38636363636363 20  C 50.390151515151516 19.272727272727273  51.24337121212122 19.624053030303028  51.94602272727273 20.326704545454547  Z " fill-rule="nonzero" fill="#000000" stroke="none" transform="matrix(1 0 0 1 1084 554 )" />
  </g>
</svg>