<?xml version="1.0" encoding="utf-8"?>
<svg version="1.1" xmlns:xlink="http://www.w3.org/1999/xlink" width="45px" height="28px" xmlns="http://www.w3.org/2000/svg">
  <g transform="matrix(1 0 0 1 -1084 -330 )">
    <path d="M 1.12060546875 19.435937499999998  C 0.37353515625 17.7078125  0 15.895833333333332  0 14  C 0 12.104166666666666  0.37353515625 10.292187499999999  1.12060546875 8.564062500000002  C 1.8676757812500002 6.8359375  2.867431640625 5.348437500000001  4.119873046875 4.1015625  C 5.372314453125001 2.8546874999999994  6.866455078125 1.859375  8.602294921875 1.1156249999999988  C 10.338134765625002 0.3718750000000006  12.158203125 0  14.0625 0  L 30.9375 0  C 32.841796875 0  34.661865234375 0.3718750000000006  36.397705078125 1.1156249999999988  C 38.133544921875 1.859375  39.627685546875 2.8546874999999994  40.880126953125 4.1015625  C 42.132568359375 5.348437500000001  43.13232421875 6.8359375  43.87939453125 8.564062500000002  C 44.62646484375 10.292187499999999  45 12.104166666666666  45 14  C 45 15.895833333333332  44.62646484375 17.7078125  43.87939453125 19.435937499999998  C 43.13232421875 21.1640625  42.132568359375 22.6515625  40.880126953125 23.8984375  C 39.627685546875 25.1453125  38.133544921875 26.140625  36.397705078125 26.884375000000002  C 34.661865234375 27.628125  32.841796875 28  30.9375 28  L 14.0625 28  C 12.158203125 28  10.338134765625002 27.628125  8.602294921875 26.884375000000002  C 6.866455078125 26.140625  5.372314453125001 25.1453125  4.119873046875 23.8984375  C 2.867431640625 22.6515625  1.8676757812500002 21.1640625  1.12060546875 19.435937499999998  Z M 26.575927734375 24.314062500000002  C 27.960205078125 24.904687499999998  29.4140625 25.2  30.9375 25.2  C 32.4609375 25.2  33.914794921875 24.904687499999998  35.299072265625 24.314062500000002  C 36.68334960937501 23.7234375  37.88085937500001 22.925  38.8916015625 21.91875  C 39.90234375000001 20.912499999999998  40.70434570312501 19.720312500000002  41.297607421875 18.342187499999998  C 41.89086914062501 16.9640625  42.18750000000001 15.516666666666664  42.1875 14  C 42.18750000000001 12.483333333333333  41.89086914062501 11.035937500000001  41.297607421875 9.657812500000002  C 40.70434570312501 8.279687499999998  39.90234375000001 7.087499999999999  38.8916015625 6.081249999999999  C 37.88085937500001 5.075000000000001  36.68334960937501 4.276562499999999  35.299072265625 3.6859374999999988  C 33.914794921875 3.0953125000000012  32.4609375 2.7999999999999994  30.9375 2.7999999999999994  C 29.4140625 2.7999999999999994  27.960205078125 3.0953125000000012  26.575927734375 3.6859374999999988  C 25.191650390625 4.276562499999999  23.994140625 5.075000000000001  22.9833984375 6.081249999999999  C 21.97265625 7.087499999999999  21.170654296875 8.279687499999998  20.577392578125 9.657812500000002  C 19.984130859375 11.035937500000001  19.6875 12.483333333333333  19.6875 14  C 19.6875 15.516666666666664  19.984130859375 16.9640625  20.577392578125 18.342187499999998  C 21.170654296875 19.720312500000002  21.97265625 20.912499999999998  22.9833984375 21.91875  C 23.994140625 22.925  25.191650390625 23.7234375  26.575927734375 24.314062500000002  Z " fill-rule="nonzero" fill="#009dd9" stroke="none" fill-opacity="0.7764705882352941" transform="matrix(1 0 0 1 1084 330 )" />
  </g>
</svg>