<?xml version="1.0" encoding="utf-8"?>
<svg version="1.1" xmlns:xlink="http://www.w3.org/1999/xlink" width="36px" height="36px" xmlns="http://www.w3.org/2000/svg">
  <g transform="matrix(1 0 0 1 -501 -421 )">
    <path d="M 27.890625 14.999999999999998  C 27.890625 15.406249999999998  27.742187500000004 15.757812499999998  27.4453125 16.0546875  L 17.5546875 25.9453125  C 17.2578125 26.242187499999996  16.90625 26.390625000000004  16.5 26.390625000000004  C 16.09375 26.390625000000004  15.742187500000002 26.242187499999996  15.4453125 25.9453125  L 8.5546875 19.0546875  C 8.2578125 18.757812499999996  8.109375 18.406249999999996  8.109375 18  C 8.109375 17.59375  8.2578125 17.2421875  8.5546875 16.9453125  L 10.9453125 14.5546875  C 11.242187500000002 14.2578125  11.593750000000002 14.109375000000002  12 14.109375000000002  C 12.40625 14.109375000000002  12.7578125 14.2578125  13.0546875 14.5546875  L 16.5 18  L 22.9453125 11.554687499999998  C 23.242187500000004 11.257812499999998  23.593750000000004 11.109375  24 11.109375  C 24.406250000000004 11.109375  24.757812500000004 11.257812499999998  25.0546875 11.554687499999998  L 27.4453125 13.945312499999998  C 27.742187500000004 14.2421875  27.890625 14.59375  27.890625 14.999999999999998  Z M 29.0390625 24.3984375  C 30.1796875 22.445312499999996  30.75 20.3125  30.75 18  C 30.75 15.687499999999998  30.1796875 13.5546875  29.0390625 11.6015625  C 27.898437500000004 9.648437499999996  26.351562500000004 8.101562499999996  24.3984375 6.9609375  C 22.4453125 5.8203125  20.3125 5.250000000000002  18 5.250000000000002  C 15.6875 5.250000000000002  13.554687500000002 5.8203125  11.6015625 6.9609375  C 9.6484375 8.101562499999996  8.1015625 9.648437499999996  6.9609375 11.6015625  C 5.820312500000001 13.5546875  5.25 15.687499999999998  5.25 18  C 5.25 20.3125  5.820312500000001 22.445312499999996  6.9609375 24.3984375  C 8.1015625 26.351562499999996  9.6484375 27.8984375  11.6015625 29.0390625  C 13.554687500000002 30.1796875  15.6875 30.75  18 30.75  C 20.3125 30.75  22.4453125 30.1796875  24.3984375 29.0390625  C 26.351562500000004 27.8984375  27.898437500000004 26.351562499999996  29.0390625 24.3984375  Z M 33.5859375 8.96484375  C 35.19531249999999 11.722656249999996  36 14.734374999999995  36 18  C 36 21.265625  35.19531249999999 24.277343749999996  33.5859375 27.03515625  C 31.976562500000004 29.79296875  29.79296875 31.9765625  27.03515625 33.5859375  C 24.277343750000004 35.1953125  21.265625 36  18 36  C 14.734375000000002 36  11.72265625 35.1953125  8.96484375 33.5859375  C 6.207031250000001 31.9765625  4.0234375 29.79296875  2.4140625 27.03515625  C 0.8046874999999999 24.277343749999996  0 21.265625  0 18  C 0 14.734374999999995  0.8046874999999999 11.722656249999996  2.4140625 8.96484375  C 4.0234375 6.20703125  6.207031250000001 4.0234374999999964  8.96484375 2.4140624999999987  C 11.72265625 0.8046874999999969  14.734375000000002 0  18 0  C 21.265625 0  24.277343750000004 0.8046874999999969  27.03515625 2.4140624999999987  C 29.79296875 4.0234374999999964  31.976562500000004 6.20703125  33.5859375 8.96484375  Z " fill-rule="nonzero" fill="#ec808d" stroke="none" transform="matrix(1 0 0 1 501 421 )" />
  </g>
</svg>