<?xml version="1.0" encoding="utf-8"?>
<svg version="1.1" xmlns:xlink="http://www.w3.org/1999/xlink" width="94px" height="35px" xmlns="http://www.w3.org/2000/svg">
  <defs>
    <mask fill="white" id="clip37">
      <path d="M 0 30  L 0 5  C 0 2.2000000000000455  2.2000000000000455 0  5 0  L 54.33333333333212 0  L 89 0  C 91.79999999999995 0  94 2.2000000000000455  94 5  L 94 30  C 94 32.799999999999955  91.79999999999995 35  89 35  L 5 35  C 2.2000000000000455 35  0 32.799999999999955  0 30  Z " fill-rule="evenodd" />
    </mask>
  </defs>
  <g transform="matrix(1 0 0 1 -1768 -632 )">
    <path d="M 0 30  L 0 5  C 0 2.2000000000000455  2.2000000000000455 0  5 0  L 54.33333333333212 0  L 89 0  C 91.79999999999995 0  94 2.2000000000000455  94 5  L 94 30  C 94 32.799999999999955  91.79999999999995 35  89 35  L 5 35  C 2.2000000000000455 35  0 32.799999999999955  0 30  Z " fill-rule="nonzero" fill="#ffffff" stroke="none" transform="matrix(1 0 0 1 1768 632 )" />
    <path d="M 0 30  L 0 5  C 0 2.2000000000000455  2.2000000000000455 0  5 0  L 54.33333333333212 0  L 89 0  C 91.79999999999995 0  94 2.2000000000000455  94 5  L 94 30  C 94 32.799999999999955  91.79999999999995 35  89 35  L 5 35  C 2.2000000000000455 35  0 32.799999999999955  0 30  Z " stroke-width="2" stroke="#797979" fill="none" transform="matrix(1 0 0 1 1768 632 )" mask="url(#clip37)" />
  </g>
</svg>