<?xml version="1.0" encoding="utf-8"?>
<svg version="1.1" xmlns:xlink="http://www.w3.org/1999/xlink" width="32px" height="35px" xmlns="http://www.w3.org/2000/svg">
  <g transform="matrix(1 0 0 1 -343 -734 )">
    <path d="M 11.431818181818182 13.330078125  C 11.568181818181818 13.466796875  11.636363636363637 13.641493055555555  12 13.854166666666668  L 12 26.979166666666668  C 11.636363636363637 27.19184027777778  11.568181818181818 27.366536458333332  11.431818181818182 27.503255208333332  C 11.295454545454545 27.639973958333332  11.121212121212123 27.708333333333332  10.909090909090908 27.708333333333332  L 9.454545454545455 27.708333333333332  C 9.242424242424244 27.708333333333332  9.06818181818182 27.639973958333332  8.931818181818182 27.503255208333332  C 8.795454545454545 27.366536458333332  8.727272727272727 27.19184027777778  9 26.979166666666668  L 9 13.854166666666668  C 8.727272727272727 13.641493055555555  8.795454545454545 13.466796875  8.931818181818182 13.330078125  C 9.06818181818182 13.193359375  9.242424242424244 13.125  9.454545454545455 13.125  L 10.909090909090908 13.125  C 11.121212121212123 13.125  11.295454545454545 13.193359375  11.431818181818182 13.330078125  Z M 17.25 13.330078125  C 17.386363636363637 13.466796875  17.454545454545453 13.641493055555555  17 13.854166666666668  L 17 26.979166666666668  C 17.454545454545453 27.19184027777778  17.386363636363637 27.366536458333332  17.25 27.503255208333332  C 17.113636363636363 27.639973958333332  16.93939393939394 27.708333333333332  16.727272727272727 27.708333333333332  L 15.272727272727273 27.708333333333332  C 15.060606060606062 27.708333333333332  14.886363636363637 27.639973958333332  14.75 27.503255208333332  C 14.613636363636363 27.366536458333332  14.545454545454545 27.19184027777778  15 26.979166666666668  L 15 13.854166666666668  C 14.545454545454545 13.641493055555555  14.613636363636363 13.466796875  14.75 13.330078125  C 14.886363636363637 13.193359375  15.060606060606062 13.125  15.272727272727273 13.125  L 16.727272727272727 13.125  C 16.93939393939394 13.125  17.113636363636363 13.193359375  17.25 13.330078125  Z M 23.068181818181817 13.330078125  C 23.204545454545453 13.466796875  23.272727272727273 13.641493055555555  23 13.854166666666668  L 23 26.979166666666668  C 23.272727272727273 27.19184027777778  23.204545454545453 27.366536458333332  23.068181818181817 27.503255208333332  C 22.931818181818183 27.639973958333332  22.757575757575758 27.708333333333332  22.545454545454547 27.708333333333332  L 21.09090909090909 27.708333333333332  C 20.87878787878788 27.708333333333332  20.704545454545453 27.639973958333332  20.568181818181817 27.503255208333332  C 20.431818181818183 27.366536458333332  20.363636363636363 27.19184027777778  20 26.979166666666668  L 20 13.854166666666668  C 20.363636363636363 13.641493055555555  20.431818181818183 13.466796875  20.568181818181817 13.330078125  C 20.704545454545453 13.193359375  20.87878787878788 13.125  21.09090909090909 13.125  L 22.545454545454547 13.125  C 22.757575757575758 13.125  22.931818181818183 13.193359375  23.068181818181817 13.330078125  Z M 26.022727272727273 31.2744140625  C 26.12878787878788 30.99338107638889  26.181818181818183 30.68576388888889  26 30.3515625  L 26 9  L 6 9  L 6 30.3515625  C 5.818181818181818 30.68576388888889  5.871212121212122 30.99338107638889  5.9772727272727275 31.2744140625  C 6.083333333333334 31.55544704861111  6.193181818181818 31.76052517361111  6.306818181818182 31.8896484375  C 6.420454545454546 32.01877170138889  6.5 32.08333333333333  6.545454545454546 32  L 25.454545454545453 32  C 25.5 32.08333333333333  25.579545454545453 32.01877170138889  25.693181818181817 31.8896484375  C 25.806818181818183 31.76052517361111  25.91666666666667 31.55544704861111  26.022727272727273 31.2744140625  Z M 12.022727272727273 3.167317708333332  L 10.909090909090908 6  L 21.09090909090909 6  L 20 3.167317708333332  C 19.893939393939398 3.030598958333332  19.765151515151516 2.9470486111111094  19.613636363636363 2.916666666666668  L 12.409090909090908 2.916666666666668  C 12.257575757575758 2.9470486111111094  12.12878787878788 3.030598958333332  12.022727272727273 3.167317708333332  Z M 31.795454545454547 6.038411458333332  C 31.931818181818183 6.175130208333332  32 6.349826388888887  32 6.5625  L 32 8.020833333333332  C 32 8.233506944444441  31.931818181818183 8.408203125  31.795454545454547 8.544921875  C 31.65909090909091 8.681640625  31.484848484848488 8.75  31.272727272727273 8.75  L 29 8.75  L 29 30.3515625  C 29.09090909090909 31.612413194444443  28.734848484848488 32.70236545138889  28.022727272727273 33.62141927083333  C 27.310606060606062 34.54047309027778  26.454545454545453 35  25.454545454545453 35  L 6.545454545454546 35  C 5.545454545454546 35  4.68939393939394 34.5556640625  3.977272727272727 33.6669921875  C 3.2651515151515156 32.7783203125  2.909090909090909 31.70355902777778  3 30.442708333333332  L 3 8.75  L 0.7272727272727273 8.75  C 0.5151515151515151 8.75  0.34090909090909094 8.681640625  0.20454545454545456 8.544921875  C 0.06818181818181818 8.408203125  0 8.233506944444441  0 8.020833333333332  L 0 6.5625  C 0 6.349826388888887  0.06818181818181818 6.175130208333332  0.20454545454545456 6.038411458333332  C 0.34090909090909094 5.901692708333332  0.5151515151515151 5.833333333333332  0.7272727272727273 5.833333333333332  L 7.75 5.833333333333332  L 9.340909090909092 2.027994791666668  C 9.56818181818182 1.4659288194444415  9.977272727272728 0.9874131944444414  10.568181818181818 0.592447916666668  C 11.15909090909091 0.19748263888888673  11.757575757575758 0  12.363636363636363 0  L 19.636363636363637 0  C 20.242424242424246 0  20.84090909090909 0.19748263888888673  21.431818181818183 0.592447916666668  C 22.022727272727273 0.9874131944444414  22.431818181818183 1.4659288194444415  22.65909090909091 2.027994791666668  L 24.25 5.833333333333332  L 31.272727272727273 5.833333333333332  C 31.484848484848488 5.833333333333332  31.65909090909091 5.901692708333332  31.795454545454547 6.038411458333332  Z " fill-rule="nonzero" fill="#ffffff" stroke="none" transform="matrix(1 0 0 1 343 734 )" />
  </g>
</svg>